<svg width="41" height="41" viewBox="0 0 41 41" fill="none" xmlns="http://www.w3.org/2000/svg">
<rect width="41" height="41" rx="8" fill="#F2C84C"/>
<path d="M28 18.8332H13M23.8333 12.1665V15.4998M17.1667 12.1665V15.4998M19.25 22.1665L20.5 21.3332V25.4998M19.4583 25.4998H21.5417M17 28.8332H24C25.4001 28.8332 26.1002 28.8332 26.635 28.5607C27.1054 28.321 27.4878 27.9386 27.7275 27.4681C28 26.9334 28 26.2333 28 24.8332V17.8332C28 16.433 28 15.733 27.7275 15.1982C27.4878 14.7278 27.1054 14.3453 26.635 14.1057C26.1002 13.8332 25.4001 13.8332 24 13.8332H17C15.5999 13.8332 14.8998 13.8332 14.365 14.1057C13.8946 14.3453 13.5122 14.7278 13.2725 15.1982C13 15.733 13 16.433 13 17.8332V24.8332C13 26.2333 13 26.9334 13.2725 27.4681C13.5122 27.9386 13.8946 28.321 14.365 28.5607C14.8998 28.8332 15.5999 28.8332 17 28.8332Z" stroke="white" stroke-width="2" stroke-linecap="round" stroke-linejoin="round"/>
</svg>
