<svg width="42" height="42" viewBox="0 0 42 42" fill="none" xmlns="http://www.w3.org/2000/svg">
<rect width="42" height="42" rx="8" fill="#6FCF97"/>
<path d="M22.6668 20.1665H17.6668M19.3335 23.4998H17.6668M24.3335 16.8332H17.6668M27.6668 16.6665V25.3332C27.6668 26.7333 27.6668 27.4334 27.3943 27.9681C27.1547 28.4386 26.7722 28.821 26.3018 29.0607C25.767 29.3332 25.067 29.3332 23.6668 29.3332H18.3335C16.9334 29.3332 16.2333 29.3332 15.6985 29.0607C15.2281 28.821 14.8457 28.4386 14.606 27.9681C14.3335 27.4334 14.3335 26.7333 14.3335 25.3332V16.6665C14.3335 15.2664 14.3335 14.5663 14.606 14.0315C14.8457 13.5611 15.2281 13.1787 15.6985 12.939C16.2333 12.6665 16.9334 12.6665 18.3335 12.6665H23.6668C25.067 12.6665 25.767 12.6665 26.3018 12.939C26.7722 13.1787 27.1547 13.5611 27.3943 14.0315C27.6668 14.5663 27.6668 15.2664 27.6668 16.6665Z" stroke="white" stroke-width="2" stroke-linecap="round" stroke-linejoin="round"/>
</svg>
