<svg width="42" height="42" viewBox="0 0 42 42" fill="none" xmlns="http://www.w3.org/2000/svg">
<rect width="42" height="42" rx="8" fill="#FF95AF"/>
<path d="M21.8332 16.8333L20.9036 14.9741C20.636 14.439 20.5022 14.1714 20.3026 13.976C20.1262 13.8031 19.9134 13.6716 19.6799 13.5911C19.4158 13.5 19.1167 13.5 18.5184 13.5H15.3332C14.3997 13.5 13.933 13.5 13.5765 13.6817C13.2629 13.8414 13.0079 14.0964 12.8482 14.41C12.6665 14.7665 12.6665 15.2332 12.6665 16.1667V16.8333M12.6665 16.8333H25.3332C26.7333 16.8333 27.4334 16.8333 27.9681 17.1058C28.4386 17.3455 28.821 17.728 29.0607 18.1984C29.3332 18.7331 29.3332 19.4332 29.3332 20.8333V24.5C29.3332 25.9001 29.3332 26.6002 29.0607 27.135C28.821 27.6054 28.4386 27.9878 27.9681 28.2275C27.4334 28.5 26.7333 28.5 25.3332 28.5H16.6665C15.2664 28.5 14.5663 28.5 14.0315 28.2275C13.5611 27.9878 13.1787 27.6054 12.939 27.135C12.6665 26.6002 12.6665 25.9001 12.6665 24.5V16.8333Z" stroke="white" stroke-width="2" stroke-linecap="round" stroke-linejoin="round"/>
</svg>
