<svg width="41" height="41" viewBox="0 0 41 41" fill="none" xmlns="http://www.w3.org/2000/svg">
<rect width="41" height="41" rx="8" fill="#9B51E1"/>
<path d="M24.8332 22.1667C25.064 22.1667 25.1794 22.1667 25.273 22.218C25.3501 22.2603 25.422 22.3397 25.4563 22.4207C25.498 22.5189 25.4875 22.6233 25.4665 22.8323C25.3578 23.9157 24.985 24.9596 24.3763 25.8705C23.6438 26.9669 22.6026 27.8213 21.3844 28.3259C20.1662 28.8305 18.8258 28.9625 17.5326 28.7053C16.2394 28.4481 15.0515 27.8131 14.1191 26.8808C13.1868 25.9484 12.5518 24.7605 12.2946 23.4673C12.0374 22.1741 12.1694 20.8337 12.674 19.6155C13.1786 18.3973 14.033 17.3561 15.1294 16.6236C16.0403 16.0149 17.0842 15.6421 18.1676 15.5334C18.3766 15.5124 18.481 15.5019 18.5792 15.5436C18.6602 15.5779 18.7396 15.6498 18.7819 15.7269C18.8332 15.8205 18.8332 15.9359 18.8332 16.1667V21.5001C18.8332 21.7334 18.8332 21.8501 18.8786 21.9392C18.9185 22.0176 18.9823 22.0814 19.0607 22.1213C19.1498 22.1667 19.2665 22.1667 19.4998 22.1667H24.8332Z" stroke="white" stroke-width="2" stroke-linecap="round" stroke-linejoin="round"/>
<path d="M22.1665 12.8334C22.1665 12.6026 22.1665 12.4871 22.2178 12.3936C22.26 12.3164 22.3394 12.2446 22.4204 12.2102C22.5186 12.1686 22.6231 12.1791 22.8321 12.2C24.3558 12.3528 25.7882 13.027 26.8806 14.1193C27.9729 15.2117 28.6471 16.6441 28.7999 18.1678C28.8208 18.3768 28.8313 18.4813 28.7897 18.5795C28.7553 18.6605 28.6835 18.7399 28.6063 18.7821C28.5128 18.8334 28.3973 18.8334 28.1665 18.8334L22.8332 18.8334C22.5998 18.8334 22.4831 18.8334 22.394 18.788C22.3156 18.748 22.2519 18.6843 22.2119 18.6059C22.1665 18.5168 22.1665 18.4001 22.1665 18.1667V12.8334Z" stroke="white" stroke-width="2" stroke-linecap="round" stroke-linejoin="round"/>
</svg>
