<svg width="13" height="12" viewBox="0 0 13 12" fill="none" xmlns="http://www.w3.org/2000/svg">
<path d="M2.18562 3.07438C2.06218 3.07438 1.96822 3.18509 1.98828 3.30688L3.41999 12H9.29999L10.7317 3.30688C10.7518 3.18509 10.6578 3.07438 10.5344 3.07438H2.18562ZM11.06 0.991736C11.1704 0.991736 11.26 1.08128 11.26 1.19174V1.78347C11.26 1.89393 11.1704 1.98347 11.06 1.98347H1.65998C1.54953 1.98347 1.45998 1.89393 1.45998 1.78347V1.19174C1.45998 1.08128 1.54953 0.991736 1.65998 0.991736H4.25838C4.69938 0.991736 5.05757 0.446777 5.05757 0H7.66241C7.66241 0.446777 8.02011 0.991736 8.4616 0.991736H11.06Z" fill="#999999"/>
</svg>
