<svg xmlns="http://www.w3.org/2000/svg" width="1728" height="618" viewBox="0 0 1728 618" fill="none">
  <path d="M285.801 596.64C264.561 568.55 231.741 565.25 192.391 571.26C173.081 574.2 155.491 580.26 137.501 585.62C118.191 591.35 98.6308 596.28 77.1808 596.08C68.0308 596 59.2608 594.89 51.5208 591.24C33.8308 582.91 33.2508 567.7 50.3208 558.74C61.5608 552.86 75.0008 551.36 88.4408 550.42C156.651 545.58 202.031 510.89 201.441 463.81C201.441 459.6 201.171 455.36 201.551 451.17C201.822 447.581 202.604 444.049 203.871 440.68C208.481 429.25 223.181 421.92 237.161 423.68C249.751 425.25 258.401 435.79 256.811 447.53C255.561 457.34 250.001 466.44 247.491 476.04C238.411 510.51 251.231 541.46 278.491 570.19C286.211 578.32 298.061 581.01 311.211 582.5C329.751 584.61 337.491 588.44 338.921 598.7C340.351 608.96 335.851 615.61 316.141 616.56C296.431 617.51 287.271 598.6 285.801 596.64Z" fill="#6FCF97"/>
  <path d="M1728.85 534.41C1709.23 534.41 1696.95 527.19 1690.33 515.14C1685.89 507.14 1682.6 498.71 1678.74 490.49C1676.78 486.286 1674.11 482.452 1670.84 479.16C1660.05 468.32 1645.11 465.36 1628.12 471.26C1618.96 474.44 1610.6 478.67 1601.59 482.05C1591.47 485.85 1580.83 488.05 1569.26 484.94C1559.09 482.2 1551.75 476.02 1551.89 469.63C1551.89 462.23 1558.74 458.02 1567.6 454.98C1575.52 452.31 1584.17 451.62 1592.7 450.98C1595.25 450.78 1597.84 450.73 1600.43 450.54C1614.43 449.48 1629 448.26 1634.93 437.8C1640.93 427.14 1634.18 417.75 1624.33 409.62C1617.13 403.69 1608.61 398.53 1601.16 392.72C1591.66 385.31 1585.37 377.03 1589.58 366.63C1594.64 353.97 1611.9 350.44 1626.07 359.26C1632.97 363.59 1638.41 369.887 1641.69 377.34C1644.06 382.802 1647.09 387.959 1650.69 392.7C1660.86 405.43 1675.3 408.56 1694.48 402.52C1706.48 398.74 1716.18 392.16 1728.84 389.2V439.83C1713.24 450.9 1710.29 460.2 1718.09 472.83C1721.21 477.297 1724.82 481.406 1728.84 485.08L1728.85 534.41Z" fill="#6FCF97"/>
  <path d="M437.641 585.8C430.711 578.37 422.641 571.42 416.061 563.8C409.161 555.8 410.751 548.8 418.891 544.69C424.05 542.391 429.68 541.346 435.321 541.64C440.851 541.818 446.251 543.36 451.041 546.13C461.311 552.73 463.961 561.51 466.181 570.64C468.751 581.16 477.761 601.28 470.181 602.33C464.331 602.35 454.011 607 437.641 585.8Z" fill="#63DBE2"/>
  <path d="M1728.85 202.75C1722.63 206.64 1718.23 211.5 1713.21 216.07C1707.41 221.27 1700.62 225.66 1690.04 225.4C1680.23 225.14 1675.69 220.79 1677.91 214.18C1679.84 208.34 1685.48 204.54 1692.39 201.47C1695.16 200.228 1698.02 199.201 1700.95 198.4C1718.77 193.58 1724.67 183.56 1723.69 168.62C1722.98 158.08 1720.54 147.37 1728.75 137.51L1728.85 202.75Z" fill="#9B51E1"/>
  <path d="M207.531 594.47C205.49 593.924 203.695 592.701 202.441 591C199.391 587.43 200.511 584.1 205.141 581.68C207.165 580.513 209.476 579.941 211.811 580.03C214.113 580.055 216.357 580.75 218.271 582.03C222.681 584.91 219.741 587.82 217.601 590.96C213.881 596.45 209.441 594.47 207.531 594.47Z" fill="#3188FF"/>
  <path d="M1237.79 18.44C1239.13 14.44 1240.69 4.44 1241.79 0H1320.36C1348.1 18.81 1357.11 49.33 1343.45 71.75C1341.54 75.3304 1339.34 78.7426 1336.85 81.95C1320.21 101.04 1320.66 124.63 1323.38 148.95C1324.8 161.7 1324.81 174.34 1318.48 185.27C1310.31 199.38 1289.16 198.38 1274.11 183.27C1267.79 177.107 1263.99 168.812 1263.44 160C1262.7 150.11 1262.88 140.29 1261.24 130.31C1258.45 112.49 1247.64 102.69 1224.24 95.07C1211.38 90.9 1198.09 88.8 1185.34 83.99C1176.96 80.83 1169.69 76.74 1164.49 70.65C1153.88 58.19 1159.3 47.06 1176.64 46.28C1182.49 46.1922 1188.35 46.446 1194.17 47.04C1220.44 49.1 1229.3 44.6 1235.08 26.62C1235.94 23.89 1236.87 21.17 1237.79 18.44Z" fill="#3188FF"/>
  <path d="M75.3508 269.24C87.0308 268.94 98.3508 270.9 109.661 272.35C128.145 274.814 146.953 272.379 164.201 265.29C178.601 259.49 192.201 252.67 207.901 248.43C222.781 244.43 237.301 244.09 251.361 250.04C263.121 255.04 267.291 262.56 265.741 271.67C264.311 280.25 255.341 284.17 244.501 286.13C232.111 288.38 219.401 289.67 206.891 291.8C186.481 295.31 178.451 304.8 183.721 318.8C187.061 327.66 193.841 335.54 199.171 343.86C202.371 348.95 205.601 354.01 206.291 359.66C207.801 372.22 200.831 382.15 187.721 385.85C173.721 389.85 155.111 386.09 144.181 377.26C133.251 368.43 128.731 357.49 126.801 346.08C125.531 338.82 124.871 331.49 122.211 324.36C115.491 306.67 99.4008 299.53 73.6308 302.75C68.9008 303.35 64.1308 303.97 59.3408 304.25C49.9208 304.79 41.1908 303.95 36.3408 297.25C31.9608 291.25 33.8308 282.77 41.0208 277.4C50.2808 270.46 62.3708 268.88 75.3508 269.24Z" fill="#63DBE2"/>
  <path d="M1649.84 294C1649.2 286.93 1651.77 279.95 1650.51 272.78C1648.72 262.51 1640.86 255.78 1627.34 251.63C1618.17 248.84 1608.44 247.4 1598.81 245.69C1590.89 244.46 1583.16 242.221 1575.81 239.03C1559.46 231.5 1556.91 219.84 1569.51 209.44C1576.2 203.91 1584.96 200.11 1593.51 196.11C1602.06 192.11 1610.28 187.89 1615.96 181.75C1624.48 172.54 1621.75 163.1 1608.7 156.82C1600.82 153.336 1592.51 150.931 1583.99 149.67C1575.59 148.19 1567.13 146.82 1559.56 143.67C1547.24 138.56 1542.18 130.9 1543.56 121.24C1544.91 111.91 1552.9 105.38 1564.47 101.02C1570.96 98.59 1576.23 101.02 1580.55 104.3C1585.38 108.079 1589.56 112.623 1592.93 117.75C1599.67 127.75 1610.58 134.27 1625.58 138.01C1636.14 140.68 1646.33 143.94 1654.96 149.18C1668.71 157.54 1670.68 168.99 1658.83 178.64C1651.57 184.51 1642.59 189.37 1634.94 195.05C1620.94 205.44 1619.94 214.1 1632.68 225.34C1649.68 240.34 1667.94 254.65 1685.43 269.42C1697.43 279.52 1707.02 290.37 1705.86 304.24C1705.4 308.716 1703.44 312.903 1700.28 316.11C1693.91 323.11 1681.13 326.92 1670.41 325.44C1659.94 324 1651.44 317 1649.84 308C1649.46 303.341 1649.46 298.659 1649.84 294Z" fill="#63DBE2"/>
  <path d="M1417.37 403.9C1415.92 380.34 1421.62 362.77 1429.16 346.48C1437.08 329.36 1442.04 311.09 1441.89 289.8C1441.82 278.748 1442.68 267.71 1444.45 256.8C1446.7 242.8 1453.88 234.68 1461.76 236.91C1472.85 240.15 1478.52 251.77 1478.76 267.7C1479.01 283.16 1475.41 297.83 1476.41 313.39C1477.65 332.66 1485.49 344.39 1498.8 345.39C1506.51 346.225 1514.28 346.503 1522.03 346.22C1529.78 345.78 1537.03 348.66 1542.82 357.31C1546.94 363.43 1549.36 370.7 1547.44 378.31C1545.52 385.92 1540.97 390.65 1535 391.8C1526.11 393.5 1517.82 390.46 1509.83 384.33C1502.73 378.93 1495.28 375.48 1487.35 377.41C1477.92 379.67 1474.14 389.49 1472.59 401.96C1471.85 409.933 1470.26 417.805 1467.85 425.44C1460.32 446.91 1436.52 449.64 1425.44 430.38C1420.57 421.71 1416.89 412.69 1417.37 403.9Z" fill="#9B51E1"/>
  <path d="M356.901 526.41C341.821 525.46 322.681 520.98 304.491 514.8C294.611 511.44 294.031 504.29 301.491 498.69C308.711 493.36 318.491 490.13 325.551 484.52C335.201 476.87 335.781 471.98 326.611 464.05C323.252 461.009 319.712 458.174 316.011 455.56C298.851 444.05 313.171 428.09 332.831 426.83C369.511 424.45 372.581 411.83 379.341 393.83C382.931 384.25 384.171 374.07 395.621 366.71C405.271 360.45 416.971 361.5 423.861 369.38C434.701 381.81 428.861 393.88 421.431 405.62C415.431 415.1 408.071 424.2 401.431 433.53C391.771 447.01 393.711 460.53 401.431 474.06C405.291 480.72 408.671 487.24 408.631 494.54C408.441 513.74 390.091 526.51 356.901 526.41Z" fill="#9B51E1"/>
  <path d="M52.5808 386.94C74.3408 387.33 98.0308 389.83 118.501 400.76C138.001 411.22 146.811 425.15 147.771 441.63C149.701 474.22 125.141 496.45 87.2208 512.96C72.4908 519.37 56.9308 524.73 38.7808 524.64C32.8708 524.64 26.7808 524.36 24.3208 519.75C21.9808 515.34 24.1808 511.46 28.7008 508.17C36.4208 502.46 46.5608 499.66 57.2908 497.85C70.6708 495.58 84.2908 493.85 96.6008 489.25C105.241 485.95 112.091 480.8 116.131 474.58C118.092 471.715 119.37 468.438 119.864 465.002C120.358 461.565 120.056 458.061 118.981 454.76C114.411 441.43 96.1808 431.41 76.5008 430.88C62.2208 430.5 49.2808 433.55 36.6108 437.54C26.0908 440.873 15.6008 444.227 5.1408 447.6C0.410801 449.16 -1.0392 448.24 -0.999199 444.75C-0.859199 428.34 -0.769199 411.92 -0.999199 395.45C-0.999199 391.8 1.6908 390.95 5.7208 390.34C21.2344 388.042 36.8979 386.905 52.5808 386.94Z" fill="#F2C84C"/>
  <path d="M278.731 351.57C279.241 344.85 285.051 338.37 293.261 332.75C301.261 327.28 310.511 322.98 319.651 318.59C336.941 310.24 349.271 299.77 350.371 284.05C350.561 281.62 351.671 279.21 352.371 276.78C354.611 268.25 361.871 263.2 373.491 261.17C374.301 261.01 375.121 260.89 375.941 260.81C393.941 259.59 404.351 252.88 405.841 239.69C406.019 238.909 406.309 238.158 406.701 237.46C407.777 234.662 409.832 232.35 412.484 230.952C415.135 229.554 418.204 229.166 421.121 229.86C424.474 230.511 427.511 232.272 429.741 234.86C430.654 235.92 431.282 237.195 431.566 238.565C431.849 239.935 431.779 241.355 431.361 242.69C429.661 247.79 425.191 251.45 419.061 254.13C413.881 256.4 408.111 257.74 402.421 259.2C397.561 260.46 392.711 261.77 388.031 263.33C376.181 267.26 370.341 273.85 371.371 283.33C371.781 287.18 372.201 291.03 372.661 294.88C373.871 304.23 369.581 311.58 357.661 316.16C351.771 318.4 345.661 320.44 339.661 322.45C325.301 327.24 317.721 334.96 318.331 346.57C318.835 351.833 318.473 357.144 317.261 362.29C314.171 373.36 301.701 376.6 289.371 369.52C282.771 365.69 278.731 359.57 278.731 351.57Z" fill="#3188FF"/>
  <path d="M13.0008 97.12C13.0008 78.81 20.6508 60.9 35.0008 45.51C41.0008 39.08 48.2708 33.44 59.7008 31.51C68.9408 30 77.0908 31.3 82.8808 36.87C88.6708 42.44 85.4408 47.42 80.3508 52.18C78.3928 53.9937 76.3292 55.69 74.1708 57.26C29.0908 90.73 32.0608 134 81.4408 164.63C93.6967 172.206 107.264 177.416 121.441 179.99C134.181 182.42 146.731 185.48 155.011 193.31C157.791 195.98 161.521 198.78 159.011 202.31C156.401 206.08 150.671 206.15 145.491 206.12C136.959 206.208 128.473 204.856 120.391 202.12C65.5808 182.35 24.3908 154.85 14.3908 110.4C13.3308 106.06 13.4408 101.59 13.0008 97.12Z" fill="#3188FF"/>
  <path d="M1454.38 179.55C1454.38 176.08 1456.06 172.05 1457.74 168C1459.43 164.27 1460.73 160.372 1461.6 156.37C1463.69 144.37 1452.32 137.71 1435.6 140.91C1429.8 142.04 1424.01 143.57 1418.22 144.63C1414.67 145.29 1411.04 145.442 1407.44 145.08C1403.95 144.741 1400.53 143.875 1397.3 142.51C1394.4 141.301 1391.75 139.549 1389.5 137.35C1387.55 135.446 1386.13 133.073 1385.36 130.46C1382.83 120.58 1395.8 108.84 1410.15 107.89C1415.32 107.56 1418.45 109.03 1421.02 112.09C1430.87 123.81 1435.11 124.97 1454.46 122.09C1459.16 121.255 1463.91 120.697 1468.67 120.42C1482.19 120.03 1488.85 125.67 1486.32 134.8C1485.11 138.177 1484.31 141.69 1483.94 145.26C1483.79 152.41 1490.1 156.08 1500.14 154.48C1509.47 153 1518.08 152.04 1523.81 158.89C1528.81 164.79 1527.25 172.54 1519.07 178.51C1509.41 185.64 1498.17 191.84 1484.6 195.09C1467.22 199.35 1453.9 192.66 1454.38 179.55Z" fill="#6FCF97"/>
  <path d="M37.9308 216C46.0719 216.013 54.0626 218.194 61.0808 222.32C67.4508 226.27 71.5708 231.67 72.6808 237.53C73.8408 244.79 69.0308 249.92 58.9108 252.18C38.9108 256.71 14.7408 245.52 13.4108 231.08C12.5208 222.1 22.6008 215.92 37.9308 216Z" fill="#6FCF97"/>
  <path d="M395.591 55.5C389.334 55.7773 383.104 54.5244 377.441 51.85C375.168 50.7972 373.164 49.2413 371.581 47.3C370.222 45.6267 369.418 43.5714 369.281 41.42C369.193 39.2869 369.796 37.1825 371.001 35.42C372.394 33.4084 374.245 31.7564 376.401 30.6C387.131 24.55 399.571 23.2 412.581 26.35C415.916 27.0017 419.045 28.4494 421.701 30.57C423.918 32.3072 425.42 34.7983 425.921 37.57C427.041 43.46 423.441 48 416.561 51.25C409.985 54.2444 402.813 55.698 395.591 55.5Z" fill="#6FCF97"/>
  <path d="M637.191 487.46C640.564 487.44 643.905 488.121 647.001 489.46C649.691 490.567 652.009 492.42 653.681 494.8C657.141 500.13 652.171 504.01 647.251 507.6C642.417 510.97 636.945 513.315 631.171 514.49C624.761 515.96 618.481 516.33 613.311 512.71C608.141 509.09 608.311 504.22 610.141 499.66C613.131 492.39 623.641 487.4 637.191 487.46Z" fill="#F2C84C"/>
  <path d="M1281.02 473.4C1281.46 464.25 1291.6 456.48 1302.49 456.96C1312.14 457.37 1319.23 463.05 1319.07 470.07C1318.86 479.22 1308.38 487.82 1297.62 487.69C1287.58 487.55 1280.61 481.56 1281.02 473.4Z" fill="#6FCF97"/>
  <path d="M397.981 313.43C409.051 313.43 419.511 319.48 419.471 325.82C419.471 332.95 406.171 340.19 393.231 340.14C382.571 340.14 375.681 334.93 375.991 327.14C376.301 319.83 386.571 313.41 397.981 313.43Z" fill="#F2C84C"/>
  <path d="M129.971 135C124.81 134.998 119.761 133.493 115.441 130.67C111.561 128 109.331 124.4 109.211 120.67C109.081 113.67 117.481 108.2 128.521 108.02C131.284 107.985 134.038 108.342 136.701 109.08C139.169 109.749 141.51 110.82 143.631 112.25C145.493 113.494 147.063 115.129 148.231 117.04C149.256 118.741 149.786 120.694 149.761 122.68C149.721 129.62 141.241 134.9 129.971 135Z" fill="#9B51E1"/>
  <path d="M931.581 57.08C931.588 55.1357 932.135 53.2315 933.161 51.58C934.325 49.7202 935.877 48.1339 937.711 46.93C939.798 45.5424 942.099 44.5054 944.521 43.86C947.128 43.1558 949.821 42.8192 952.521 42.86C963.411 42.86 970.131 46.71 970.111 52.93C970.111 61.69 960.111 70.63 950.111 70.76C941.231 70.93 931.731 63.91 931.581 57.08Z" fill="#9B51E1"/>
  <path d="M296.631 137.82C296.501 145.04 285.801 153.15 276.361 153.19C268.911 153.19 260.761 146.72 260.801 140.78C260.801 133.91 270.301 127.45 280.111 127.71C290.441 127.92 296.751 131.78 296.631 137.82Z" fill="#63DBE2"/>
  <path d="M57.5408 471.71C45.1908 471.59 34.9108 466.5 34.6608 460.37C34.4708 455.14 42.0208 450.89 51.4608 450.93C63.4608 450.93 73.4608 456.36 73.4608 462.8C73.3808 468.28 67.1008 471.79 57.5408 471.71Z" fill="#63DBE2"/>
  <path d="M1371.67 374.62C1381.32 374.62 1386.8 378.07 1386.75 383.95C1386.75 390.9 1377.69 398.54 1369.37 398.61C1361.05 398.68 1353.92 393.05 1353.92 386.53C1353.86 384.882 1354.29 383.252 1355.14 381.84C1356.12 380.252 1357.44 378.902 1359 377.89C1360.79 376.717 1362.76 375.855 1364.84 375.34C1367.07 374.767 1369.37 374.525 1371.67 374.62Z" fill="#F2C84C"/>
  <path d="M226.931 384.86C226.931 375.21 242.931 366.11 256.471 368.12C257.991 368.312 259.459 368.801 260.791 369.56C261.934 370.198 262.878 371.14 263.521 372.28C264.072 373.284 264.232 374.455 263.971 375.57C263.653 376.751 262.971 377.801 262.021 378.57C256.361 383.84 249.931 388.89 240.411 391.22C229.711 393.86 226.991 392.58 226.931 384.86Z" fill="#9B51E1"/>
  <path d="M58.7008 351C58.8808 343.86 65.1708 338.64 73.6108 338.61C77.7155 338.565 81.7403 339.746 85.1708 342C88.1708 344.15 89.9108 347.05 89.8708 350.06C89.8708 356.73 82.1408 362.6 73.5508 362.41C64.6508 362.24 58.5308 357.58 58.7008 351Z" fill="#F2C84C"/>
  <path d="M1100.76 20.08C1100.56 27.08 1093.46 32.75 1084.86 32.81C1077.14 32.88 1071.18 28.06 1071.45 22.05C1071.74 15.73 1079.17 10.16 1087.51 10.05C1095.31 10 1100.93 14.24 1100.76 20.08Z" fill="#6FCF97"/>
  <path d="M323.841 262.82C313.841 262.58 305.981 258.29 306.171 253.19C306.371 247.66 314.401 242.61 322.871 242.7C325.088 242.676 327.298 242.972 329.431 243.58C331.395 244.135 333.249 245.025 334.911 246.21C336.364 247.229 337.562 248.571 338.411 250.13C339.159 251.526 339.476 253.113 339.321 254.69C339.041 260 333.191 263.05 323.841 262.82Z" fill="#6FCF97"/>
  <path d="M1630.05 502.13C1629.99 500.379 1630.43 498.647 1631.3 497.13C1632.29 495.436 1633.63 493.979 1635.24 492.86C1637.07 491.567 1639.09 490.587 1641.24 489.96C1643.57 489.262 1645.98 488.892 1648.41 488.86C1656.54 488.86 1658.85 492.37 1658.89 497.03C1658.89 504.75 1649.49 513.53 1641.75 513.27C1635.12 513.07 1629.99 508.18 1630.05 502.13Z" fill="#F2C84C"/>
  <path d="M1711.62 360.89C1711.62 367.97 1704.75 373.24 1695.44 373.22C1687.6 373.22 1682.72 369.35 1682.54 363C1682.35 356.09 1689.59 350.6 1698.74 350.72C1706.91 350.84 1711.62 354.54 1711.62 360.89Z" fill="#F2C84C"/>
  <path d="M364.061 556.37C371.651 556.25 377.571 560.56 377.571 566.27C377.571 573.13 370.511 578.76 361.661 578.88C353.771 578.98 348.611 575.16 348.401 569.03C348.091 562.3 355.291 556.51 364.061 556.37Z" fill="#6FCF97"/>
  <path d="M1580.1 326.66C1571.85 326.74 1569.55 323.66 1569.63 319.42C1569.77 311.42 1582.57 304.77 1593.82 306.68C1602.3 308.11 1605.16 312.68 1600.25 317.62C1597.8 320.182 1594.86 322.223 1591.6 323.62C1587.95 325.232 1584.07 326.258 1580.1 326.66Z" fill="#63DBE2"/>
  <path d="M1355.7 306.3C1349.7 306 1346.7 303.3 1346.87 298.88C1347.07 292.21 1357.59 285.19 1367.38 285.62C1373.66 285.9 1379.74 287.23 1379.8 292.83C1379.86 298.43 1366.01 306.31 1355.7 306.3Z" fill="#6FCF97"/>
  <path d="M1418.6 555.68C1412.54 555.8 1408.95 554.05 1408.37 549.62C1408.02 547.218 1408.63 544.774 1410.07 542.82C1411.79 540.535 1414.11 538.767 1416.77 537.71C1422.83 534.83 1429.77 534.89 1436.17 536.37C1441.62 537.71 1442.17 541.24 1440.29 544.78C1437.78 549.7 1426.11 555.51 1418.6 555.68Z" fill="#9B51E1"/>
  <path d="M457.441 492.54C467.441 492.4 475.211 496.31 475.611 501.68C475.981 506.63 469.821 510.37 460.821 510.51C451.171 510.66 443.121 506.51 442.751 501.27C442.381 496.03 448.111 492.67 457.441 492.54Z" fill="#63DBE2"/>
  <path d="M1657.56 91.69C1666.23 92.24 1673.34 94.25 1677.56 99.69C1678.01 100.143 1678.34 100.707 1678.5 101.326C1678.66 101.944 1678.65 102.594 1678.48 103.21C1678.24 103.881 1677.86 104.494 1677.37 105.01C1676.88 105.527 1676.29 105.935 1675.63 106.21C1668.63 110.08 1661.19 108.56 1653.81 106.65C1653.52 106.581 1653.23 106.483 1652.96 106.36C1647.71 104.18 1641.24 101.92 1642.81 97.03C1644.38 92.14 1651.77 92.28 1657.56 91.69Z" fill="#6FCF97"/>
  <path d="M1397.35 194.22C1397.35 191.57 1398.9 189.03 1401.59 187.14C1404.62 185.173 1408.16 184.13 1411.77 184.14C1419.05 184.08 1424.49 185.94 1424.96 191.43C1425.43 196.92 1416.52 203.75 1409.36 203.75C1403.27 203.74 1397.56 199.21 1397.35 194.22Z" fill="#F2C84C"/>
  <path d="M487.801 229.71C487.651 235.5 479.801 241.56 472.591 241.52C466.591 241.52 460.521 236.68 460.591 232C460.576 230.629 460.946 229.281 461.661 228.11C462.481 226.798 463.572 225.676 464.861 224.82C466.335 223.84 467.96 223.107 469.671 222.65C471.513 222.157 473.414 221.925 475.321 221.96C482.321 222.18 488.021 223.81 487.801 229.71Z" fill="#F2C84C"/>
  <path d="M1308.09 577.06C1308.09 581.99 1303.55 584.31 1297.37 584.71C1289.37 585.23 1283.04 579.93 1282.91 573.84C1282.79 569.07 1286.77 567.76 1292.56 567.71C1300.65 567.64 1308.09 572.12 1308.09 577.06Z" fill="#9B51E1"/>
  <path d="M1122.9 479.88C1114.06 479.88 1106.78 475.14 1106.9 470.35C1107.04 465.86 1110.61 463.35 1117.04 463.19C1124.76 462.96 1132.81 468.19 1132.18 473.05C1131.67 477.42 1128.02 479.88 1122.9 479.88Z" fill="#3188FF"/>
  <path d="M1494.08 445.13C1494 443.926 1494.26 442.723 1494.83 441.66C1495.47 440.476 1496.37 439.451 1497.46 438.66C1498.71 437.746 1500.1 437.05 1501.58 436.6C1503.18 436.102 1504.85 435.836 1506.53 435.81C1512.67 435.81 1517.13 437.54 1517.62 442.17C1518.11 446.8 1510.44 453.05 1504.44 452.83C1497.44 452.62 1495.24 448.9 1494.08 445.13Z" fill="#6FCF97"/>
  <path d="M297.271 463.57C302.601 463.91 307.061 465.29 307.271 469.82C307.481 474.35 300.341 480.13 294.381 479.76C287.711 479.35 285.191 475.96 284.721 471.95C284.281 467.33 290.191 463.51 297.271 463.57Z" fill="#63DBE2"/>
  <path d="M1348.15 232.56C1348.92 227.23 1353.07 224.33 1360.68 224.25C1366.68 224.25 1370.55 226.18 1370.78 230.55C1371.01 234.92 1363.44 240.88 1357.65 240.4C1351.08 239.85 1348.94 236.44 1348.15 232.56Z" fill="#63DBE2"/>
  <path d="M443.491 147.2C449.281 147.6 453.611 149.01 453.821 153.53C454.031 158.05 447.331 164.11 441.501 163.76C434.651 163.36 431.501 160.07 431.501 155.62C431.501 150.3 436.441 147.85 443.491 147.2Z" fill="#F2C84C"/>
  <path d="M215.251 317C215.731 311.51 219.831 308.61 227.361 308.42C233.631 308.27 238.421 310.26 237.861 314.97C237.281 319.97 233.481 324.13 225.701 324.59C218.301 325 216.351 320.91 215.251 317Z" fill="#F2C84C"/>
  <path d="M151.381 498.09C156.461 498.23 161.031 499.43 161.301 504.09C161.571 508.75 154.301 514.65 148.661 514.36C142.051 514.01 139.411 510.63 138.811 506.63C138.141 502 143.971 498.15 151.381 498.09Z" fill="#63DBE2"/>
  <path d="M1541.38 194.5C1542.19 189.7 1545.54 186.4 1552.72 186.05C1558.3 185.78 1563.01 187.16 1563.63 191.73C1564.25 196.3 1557.2 202.39 1551.37 202.15C1544.57 201.91 1542.68 198.32 1541.38 194.5Z" fill="#3188FF"/>
  <path d="M267.271 34.79C269.201 29.55 273.271 26.6 280.781 26.91C287.521 27.18 290.441 30 289.361 34.51C288.181 39.28 284.361 43.1 276.941 42.9C270.201 42.71 267.961 38.74 267.271 34.79Z" fill="#63DBE2"/>
  <path d="M214.051 215.07C221.261 215.38 225.521 216.88 224.751 221.07C223.941 225.49 220.541 229.07 213.281 229.29C207.051 229.43 205.101 225.81 204.961 222.62C204.913 221.658 205.102 220.699 205.512 219.827C205.922 218.955 206.539 218.197 207.311 217.62C209.25 216.111 211.599 215.223 214.051 215.07Z" fill="#F2C84C"/>
  <path d="M237.321 101.48C242.841 101.48 246.741 102.82 247.461 106.48C248.181 110.14 241.161 116.06 235.871 115.7C230.081 115.3 227.431 112.29 227.591 108.7C227.801 104.62 231.081 101.72 237.321 101.48Z" fill="#6FCF97"/>
  <path d="M1201.06 542.69C1205.98 543.14 1210.06 544.14 1210.06 548.26C1210.06 552.38 1204.11 557.32 1198.96 556.91C1197.77 556.837 1196.6 556.598 1195.47 556.2C1194.44 555.845 1193.49 555.31 1192.65 554.62C1191.92 554.024 1191.33 553.264 1190.95 552.4C1190.61 551.614 1190.5 550.747 1190.63 549.9C1190.85 545.69 1194.71 543.08 1201.06 542.69Z" fill="#3188FF"/>
  <path d="M1558.16 577.14C1551.62 576.03 1548.78 573.24 1549.28 569.27C1549.84 564.9 1553.84 562.41 1560.28 562.61C1565.28 562.73 1569.2 564.31 1568.71 568.32C1568.59 569.421 1568.25 570.485 1567.71 571.45C1567.16 572.414 1566.43 573.258 1565.55 573.93C1563.41 575.63 1560.86 576.737 1558.16 577.14Z" fill="#6FCF97"/>
  <path d="M26.3808 549.55C31.6108 550.14 36.5208 551.15 35.5908 555.55C34.6608 559.95 31.2808 563.66 24.1008 563.73C18.3108 563.73 15.7608 560.57 15.7408 557.07C15.7208 552.34 19.8708 549.92 26.3808 549.55Z" fill="#6FCF97"/>
  <path d="M1354.79 133.61C1349 132.54 1346.1 129.81 1346.58 125.83C1347.13 121.44 1351.22 119.03 1357.49 119.16C1362.32 119.28 1366.49 120.91 1365.82 124.89C1365.12 129.46 1361.88 132.76 1354.79 133.61Z" fill="#63DBE2"/>
  <path d="M516.011 592.27C516.131 587.5 519.201 584.82 525.821 584.54C530.821 584.33 534.761 585.54 535.381 589.47C536.001 593.4 530.091 598.58 524.891 598.47C518.971 598.46 516.751 595.58 516.011 592.27Z" fill="#63DBE2"/>
  <path d="M1419.35 2.3C1423.58 6.10519 1426.6 11.0714 1428.03 16.58C1431.27 28.42 1430.83 40.41 1431.37 52.4C1431.78 59.3286 1434.14 65.9987 1438.2 71.63C1445.35 82.04 1464.42 88.8 1478.05 85.63C1491.68 82.46 1498.05 72.5 1494.66 59.52C1494.37 58.43 1493.85 57.38 1493.5 56.3C1488.89 42.54 1476.74 31.48 1465.87 20.01C1459.78 13.56 1453.81 7.09 1449.73 0.01H1416.64C1417.59 0.74 1418.5 1.5 1419.35 2.3Z" fill="#F2C84C"/>
  <path d="M1697.1 44.52C1696.17 41.5589 1694.62 38.831 1692.55 36.52C1684.44 28.02 1677.55 18.85 1668.55 10.86C1664.08 6.87879 1659.32 3.24803 1654.29 0H1563.6C1559.19 3.90328 1555.82 8.84002 1553.79 14.3675C1551.76 19.8949 1551.13 25.8402 1551.96 31.67C1553.49 43.41 1561.04 53.85 1568.76 63.94C1575.91 73.21 1584.36 82.43 1600.37 85.94C1613.25 88.71 1621.71 83.14 1619.43 73.94C1617.77 67.2 1610.89 62.75 1606.07 57.24C1601.25 51.73 1598.71 46.3 1605.64 40.72C1609.27 37.8761 1613.6 36.0503 1618.17 35.43C1623.06 34.6431 1628.06 34.9852 1632.79 36.43C1640.11 38.5378 1647.05 41.8132 1653.33 46.13C1658.4 50.0282 1663.75 53.5509 1669.33 56.67C1672.62 58.4161 1676.28 59.3745 1680 59.47C1683.77 59.6371 1687.53 58.9535 1691 57.47C1697.7 54.61 1699.03 49.77 1697.1 44.52Z" fill="#9B51E1"/>
</svg>