<svg width="178" height="45" viewBox="0 0 178 45" fill="none" xmlns="http://www.w3.org/2000/svg">
<path fill-rule="evenodd" clip-rule="evenodd" d="M174.777 0H136.854C135.041 0 133.5 1.4346 133.5 3.20188V41.296C133.5 43.0654 134.511 44.5 136.325 44.5H174.247C176.063 44.5 178 43.0654 178 41.296V3.20188C178 1.4346 176.593 0 174.777 0Z" fill="white"/>
<path fill-rule="evenodd" clip-rule="evenodd" d="M174.777 0H136.854C135.041 0 133.5 1.4346 133.5 3.20188V41.296C133.5 43.0654 134.511 44.5 136.325 44.5H174.247C176.063 44.5 178 43.0654 178 41.296V3.20188C178 1.4346 176.593 0 174.777 0ZM150.452 16.9524H156.443V20.0059H156.509C157.422 18.3594 160.119 16.6875 163.455 16.6875C169.857 16.6875 171.643 20.0865 171.643 26.3821V38.1429H165.286V27.5413C165.286 24.7229 164.16 22.25 161.529 22.25C158.333 22.25 156.81 24.4135 156.81 27.9651V38.1429H150.452V16.9524ZM139.857 38.1429H146.214V16.9524H139.857V38.1429ZM147.009 9.53571C147.009 10.0574 146.907 10.574 146.707 11.0561C146.508 11.5382 146.215 11.9762 145.847 12.3452C145.478 12.7143 145.04 13.007 144.558 13.2068C144.076 13.4066 143.56 13.5095 143.038 13.5097C142.516 13.5098 142 13.4072 141.518 13.2076C141.035 13.0081 140.597 12.7156 140.229 12.3467C139.86 11.9779 139.567 11.54 139.367 11.0581C139.167 10.5761 139.065 10.0595 139.065 9.53783C139.065 8.48448 139.483 7.47423 140.228 6.72927C140.972 5.98431 141.982 5.56565 143.036 5.56537C144.089 5.56509 145.099 5.98321 145.844 6.72777C146.59 7.47233 147.008 8.48236 147.009 9.53571Z" fill="#0A66C2"/>
<path d="M127.143 38.143H121.21V35.6192H121.146C119.826 37.1492 117.533 38.4079 113.647 38.4079C108.349 38.4079 103.787 34.422 103.787 27.5711C103.787 21.0444 108.283 16.6877 113.846 16.6877C117.289 16.6877 119.427 17.9125 120.722 19.4763H120.786V6.35732H127.143V38.143ZM115.444 21.4555C111.809 21.4555 109.767 24.0471 109.767 27.4927C109.767 30.9404 111.809 33.6401 115.444 33.6401C119.082 33.6401 121.21 31.0103 121.21 27.4927C121.21 23.8776 119.082 21.4555 115.444 21.4555ZM100.996 34.7292C99.4957 36.6724 96.4061 38.4079 91.4178 38.4079C84.764 38.4079 80.5259 34.0003 80.5259 27.0774C80.5259 20.9258 84.3635 16.6877 91.6043 16.6877C97.8576 16.6877 101.714 20.7944 101.714 28.0182C101.714 28.7387 101.598 29.4549 101.598 29.4549H86.5228L86.5589 30.1097C86.9763 31.9363 88.3558 34.1698 91.5217 34.1698C94.2849 34.1698 96.1793 32.6844 97.0354 31.521L100.996 34.7292ZM95.5966 25.4266C95.639 23.1931 93.9988 20.9258 91.4136 20.9258C88.3367 20.9258 86.6945 23.3288 86.5228 25.4287H95.5966V25.4266Z" fill="#0A66C2"/>
<path d="M80.5238 16.9524H73.1071L65.6905 25.4286V6.35716H59.3333V38.1429H65.6905V27.5476L73.5288 38.1429H81.0345L72.0476 26.558L80.5238 16.9524ZM33.9048 16.9524H39.8953V20.0059H39.961C40.8743 18.3594 43.5719 16.6875 46.9072 16.6875C53.3089 16.6875 55.0952 20.7497 55.0952 26.3822V38.1429H48.7381V27.5413C48.7381 24.422 47.6129 22.25 44.981 22.25C41.7855 22.25 40.2619 24.7802 40.2619 27.9651V38.1429H33.9048V16.9524ZM23.3095 38.1429H29.6667V16.9524H23.3095V38.1429ZM26.4902 13.35C26.9985 13.362 27.5041 13.2722 27.9773 13.086C28.4504 12.8997 28.8815 12.6208 29.2452 12.2655C29.609 11.9102 29.898 11.4858 30.0954 11.0172C30.2927 10.5486 30.3944 10.0453 30.3944 9.53679C30.3944 9.02833 30.2927 8.52499 30.0954 8.05639C29.898 7.58778 29.609 7.16336 29.2452 6.80809C28.8815 6.45281 28.4504 6.17385 27.9773 5.9876C27.5041 5.80135 26.9985 5.71158 26.4902 5.72357C25.4944 5.74704 24.5474 6.1591 23.8514 6.87166C23.1554 7.58422 22.7658 8.54075 22.7658 9.53679C22.7658 10.5328 23.1554 11.4894 23.8514 12.2019C24.5474 12.9145 25.4944 13.3265 26.4902 13.35ZM6.35714 6.35716H0V38.1429H19.0714V31.7857H6.35714V6.35716Z" fill="#0A66C2"/>
</svg>
