<svg width="264" height="51" viewBox="0 0 264 51" fill="none" xmlns="http://www.w3.org/2000/svg">
<path d="M254.839 30.7619C254.839 31.8412 255.169 32.6092 255.829 33.0659C256.531 33.5225 257.501 33.7509 258.739 33.7509C259.358 33.7509 259.997 33.7094 260.657 33.6263C261.318 33.5018 261.895 33.3565 262.391 33.1904C262.762 33.6471 263.072 34.166 263.319 34.7472C263.608 35.2869 263.752 35.9511 263.752 36.7399C263.752 38.3174 263.154 39.6043 261.957 40.6007C260.802 41.597 258.739 42.0952 255.767 42.0952C252.136 42.0952 249.33 41.2649 247.349 39.6043C245.41 37.9438 244.44 35.2454 244.44 31.5091V4.85709C244.894 4.73255 245.533 4.608 246.359 4.48346C247.225 4.3174 248.133 4.23438 249.082 4.23438C250.898 4.23438 252.301 4.56649 253.291 5.23071C254.323 5.85342 254.839 7.20263 254.839 9.27833V13.2637H262.948C263.195 13.7203 263.422 14.3015 263.629 15.0073C263.876 15.6715 264 16.4188 264 17.249C264 18.702 263.67 19.7606 263.01 20.4249C262.391 21.0476 261.545 21.3589 260.472 21.3589H254.839V30.7619Z" fill="#FF95AF"/>
<path d="M239.229 32.1317C239.229 35.2867 238.053 37.7568 235.701 39.5419C233.348 41.327 229.882 42.2196 225.302 42.2196C223.568 42.2196 221.959 42.095 220.473 41.8459C218.988 41.5969 217.709 41.2232 216.636 40.7251C215.604 40.1854 214.779 39.5211 214.16 38.7324C213.582 37.9436 213.293 37.0096 213.293 35.9302C213.293 34.9338 213.499 34.1036 213.912 33.4393C214.325 32.7336 214.82 32.1524 215.398 31.6958C216.594 32.36 217.956 32.9619 219.483 33.5016C221.051 33.9998 222.846 34.2489 224.868 34.2489C226.147 34.2489 227.117 34.0621 227.777 33.6884C228.479 33.3148 228.83 32.8166 228.83 32.1939C228.83 31.6127 228.582 31.1561 228.087 30.824C227.592 30.4918 226.766 30.222 225.611 30.0144L223.754 29.6408C220.164 28.9351 217.482 27.8349 215.707 26.3404C213.974 24.8044 213.107 22.6249 213.107 19.802C213.107 18.266 213.438 16.8752 214.098 15.6298C214.758 14.3844 215.687 13.3465 216.883 12.5163C218.08 11.686 219.504 11.0425 221.154 10.5859C222.846 10.1292 224.703 9.90088 226.725 9.90088C228.252 9.90088 229.676 10.0254 230.996 10.2745C232.358 10.4821 233.534 10.8142 234.524 11.2708C235.515 11.7275 236.299 12.3295 236.877 13.0767C237.454 13.7824 237.743 14.6335 237.743 15.6298C237.743 16.5846 237.558 17.4149 237.186 18.1207C236.856 18.7849 236.423 19.3453 235.886 19.802C235.556 19.5944 235.061 19.3868 234.401 19.1793C233.74 18.9302 233.018 18.7226 232.234 18.5566C231.45 18.349 230.645 18.1829 229.82 18.0584C229.036 17.9338 228.314 17.8716 227.654 17.8716C226.292 17.8716 225.24 18.0376 224.497 18.3697C223.754 18.6603 223.383 19.1378 223.383 19.802C223.383 20.2586 223.589 20.6323 224.002 20.9229C224.414 21.2135 225.198 21.4833 226.354 21.7324L228.273 22.1683C232.234 23.0816 235.04 24.3478 236.691 25.9668C238.383 27.5443 239.229 29.5993 239.229 32.1317Z" fill="#FF95AF"/>
<path d="M195.787 42.1575C193.352 42.1575 191.082 41.8254 188.978 41.1612C186.914 40.4554 185.099 39.4176 183.531 38.0476C182.004 36.6777 180.786 34.9548 179.878 32.8791C179.012 30.8034 178.579 28.3749 178.579 25.5934C178.579 22.8535 179.012 20.5079 179.878 18.5568C180.786 16.5641 181.962 14.9451 183.407 13.6996C184.851 12.4127 186.502 11.4786 188.359 10.8974C190.216 10.2747 192.114 9.96338 194.053 9.96338C196.24 9.96338 198.221 10.2955 199.996 10.9597C201.811 11.6239 203.359 12.5373 204.638 13.6996C205.959 14.862 206.97 16.2528 207.671 17.8718C208.414 19.4909 208.785 21.2552 208.785 23.1648C208.785 24.5763 208.393 25.6557 207.609 26.4029C206.825 27.1502 205.732 27.6276 204.329 27.8352L189.04 30.1392C189.493 31.5092 190.422 32.547 191.825 33.2528C193.228 33.917 194.837 34.2491 196.653 34.2491C198.345 34.2491 199.934 34.0415 201.419 33.6264C202.946 33.1697 204.184 32.6508 205.133 32.0696C205.794 32.4847 206.351 33.0659 206.805 33.8132C207.258 34.5605 207.485 35.3492 207.485 36.1795C207.485 38.0476 206.619 39.4384 204.886 40.3517C203.565 41.0574 202.08 41.5348 200.429 41.7839C198.778 42.033 197.231 42.1575 195.787 42.1575ZM194.053 17.685C193.063 17.685 192.196 17.851 191.454 18.1832C190.752 18.5153 190.174 18.9512 189.72 19.4909C189.266 19.989 188.916 20.5702 188.668 21.2344C188.462 21.8572 188.338 22.5006 188.297 23.1648L198.881 21.4213C198.758 20.591 198.304 19.7607 197.52 18.9304C196.736 18.1001 195.58 17.685 194.053 17.685Z" fill="#FF95AF"/>
<path d="M143.851 11.3334C144.264 11.2088 144.903 11.0843 145.77 10.9598C146.678 10.8352 147.606 10.7729 148.555 10.7729C149.463 10.7729 150.268 10.8352 150.969 10.9598C151.712 11.0843 152.331 11.3334 152.826 11.707C153.322 12.0806 153.693 12.5996 153.941 13.2638C154.229 13.8865 154.374 14.7168 154.374 15.7546V29.1429C154.374 30.845 154.787 32.0697 155.612 32.8169C156.437 33.5226 157.634 33.8755 159.202 33.8755C160.151 33.8755 160.915 33.7925 161.492 33.6264C162.111 33.4604 162.586 33.2943 162.916 33.1283V11.3334C163.329 11.2088 163.968 11.0843 164.835 10.9598C165.743 10.8352 166.671 10.7729 167.62 10.7729C168.528 10.7729 169.333 10.8352 170.034 10.9598C170.777 11.0843 171.396 11.3334 171.891 11.707C172.386 12.0806 172.758 12.5996 173.005 13.2638C173.294 13.8865 173.439 14.7168 173.439 15.7546V34.685C173.439 36.7607 172.572 38.3175 170.839 39.3554C169.395 40.2687 167.662 40.9537 165.639 41.4103C163.659 41.9085 161.492 42.1576 159.14 42.1576C156.912 42.1576 154.848 41.9085 152.95 41.4103C151.093 40.9121 149.484 40.1441 148.122 39.1063C146.76 38.0684 145.708 36.74 144.965 35.1209C144.222 33.4604 143.851 31.4677 143.851 29.1429V11.3334Z" fill="#FF95AF"/>
<path d="M99.1553 22.2307C99.1553 18.9926 99.6505 16.1281 100.641 13.6373C101.672 11.1465 103.055 9.07076 104.788 7.41019C106.563 5.70812 108.626 4.42119 110.978 3.54939C113.371 2.6776 115.951 2.2417 118.715 2.2417C121.48 2.2417 124.039 2.6776 126.391 3.54939C128.784 4.42119 130.868 5.70812 132.643 7.41019C134.417 9.07076 135.799 11.1465 136.79 13.6373C137.821 16.1281 138.337 18.9926 138.337 22.2307C138.337 26.2991 137.595 29.7655 136.109 32.63C134.623 35.4529 132.601 37.6739 130.043 39.293C130.662 39.5836 131.384 39.8949 132.209 40.2271C133.076 40.5592 133.963 40.8913 134.871 41.2234C135.82 41.5555 136.79 41.8669 137.78 42.1575C138.771 42.4896 139.699 42.7802 140.566 43.0292C140.607 43.2783 140.628 43.4859 140.628 43.652C140.628 43.8595 140.628 44.0463 140.628 44.2124C140.628 46.5787 140.009 48.3015 138.771 49.3809C137.574 50.4603 135.985 50.9999 134.004 50.9999C132.106 50.9999 130.146 50.4603 128.124 49.3809C126.102 48.343 124.039 46.8278 121.934 44.8351L119.211 42.282H118.715C115.909 42.282 113.31 41.8461 110.916 40.9743C108.523 40.061 106.459 38.7533 104.726 37.0512C102.993 35.3492 101.631 33.2527 100.641 30.7618C99.6505 28.271 99.1553 25.4273 99.1553 22.2307ZM110.297 22.2307C110.297 26.0085 111.061 28.8314 112.587 30.6996C114.114 32.5677 116.157 33.5018 118.715 33.5018C121.315 33.5018 123.378 32.5677 124.905 30.6996C126.432 28.8314 127.196 26.0085 127.196 22.2307C127.196 18.4944 126.432 15.6922 124.905 13.8241C123.42 11.956 121.377 11.0219 118.777 11.0219C116.219 11.0219 114.155 11.956 112.587 13.8241C111.061 15.6507 110.297 18.4529 110.297 22.2307Z" fill="#FF95AF"/>
<path d="M63.8208 0.62271C64.2335 0.498167 64.8937 0.373625 65.8016 0.249085C66.7094 0.0830283 67.6379 0 68.587 0C69.4949 0 70.2996 0.0622703 71.0011 0.186811C71.7439 0.311354 72.3629 0.560439 72.858 0.934065C73.3532 1.30769 73.7246 1.82662 73.9722 2.49084C74.2198 3.11355 74.3436 3.94383 74.3436 4.98168V11.0843C75.3753 10.6691 76.345 10.3785 77.2529 10.2125C78.202 10.0464 79.2336 9.96337 80.3478 9.96337C82.3286 9.96337 84.2062 10.3162 85.9806 11.022C87.7551 11.7277 89.3232 12.7656 90.685 14.1355C92.0467 15.464 93.1196 17.1245 93.9037 19.1172C94.6877 21.1099 95.0798 23.4139 95.0798 26.0293C95.0798 28.7277 94.6671 31.094 93.8418 33.1282C93.0577 35.1209 91.9436 36.7814 90.4992 38.1099C89.0549 39.4383 87.2805 40.4554 85.1759 41.1612C83.1126 41.8254 80.8224 42.1575 78.3052 42.1575C75.5816 42.1575 73.2707 41.8254 71.3725 41.1612C69.4742 40.5385 67.8649 39.7497 66.5444 38.7949C64.7287 37.5079 63.8208 35.8474 63.8208 33.8132V0.62271ZM78.3052 33.8132C80.2034 33.8132 81.6683 33.1697 82.7 31.8828C83.7729 30.5543 84.3094 28.6032 84.3094 26.0293C84.3094 23.4139 83.7729 21.4628 82.7 20.1758C81.6271 18.8889 80.1828 18.2454 78.3671 18.2454C77.5417 18.2454 76.8196 18.3285 76.2006 18.4945C75.6229 18.6606 74.9832 18.9096 74.2817 19.2418V32.8169C74.7356 33.1075 75.2721 33.3565 75.8911 33.5641C76.5514 33.7302 77.356 33.8132 78.3052 33.8132Z" fill="#FF95AF"/>
<path d="M58.563 26.0293C58.563 28.6032 58.171 30.9072 57.3869 32.9414C56.6028 34.9341 55.4887 36.6154 54.0444 37.9854C52.6413 39.3553 50.9494 40.3932 48.9686 41.0989C46.9879 41.8047 44.7801 42.1575 42.3455 42.1575C39.9108 42.1575 37.703 41.7839 35.7223 41.0366C33.7415 40.2894 32.029 39.2308 30.5847 37.8608C29.1816 36.4493 28.0881 34.7473 27.304 32.7546C26.52 30.7619 26.1279 28.5202 26.1279 26.0293C26.1279 23.58 26.52 21.359 27.304 19.3663C28.0881 17.3736 29.1816 15.6923 30.5847 14.3224C32.029 12.9109 33.7415 11.8315 35.7223 11.0843C37.703 10.337 39.9108 9.96338 42.3455 9.96338C44.7801 9.96338 46.9879 10.3578 48.9686 11.1465C50.9494 11.8938 52.6413 12.9731 54.0444 14.3846C55.4887 15.7546 56.6028 17.4359 57.3869 19.4286C58.171 21.4213 58.563 23.6215 58.563 26.0293ZM36.8983 26.0293C36.8983 28.5617 37.3729 30.5128 38.322 31.8828C39.3124 33.2112 40.6742 33.8755 42.4074 33.8755C44.1405 33.8755 45.461 33.1905 46.3689 31.8205C47.318 30.4506 47.7926 28.5202 47.7926 26.0293C47.7926 23.5385 47.318 21.6288 46.3689 20.3004C45.4198 18.9304 44.0786 18.2454 42.3455 18.2454C40.6123 18.2454 39.2711 18.9304 38.322 20.3004C37.3729 21.6288 36.8983 23.5385 36.8983 26.0293Z" fill="#FF95AF"/>
<path d="M9.53244 3.4247C9.98636 3.34167 10.7085 3.23788 11.6989 3.11334C12.6893 2.94729 13.6384 2.86426 14.5463 2.86426C15.4954 2.86426 16.3207 2.94729 17.0222 3.11334C17.765 3.23788 18.384 3.48697 18.8792 3.86059C19.3744 4.23422 19.7458 4.75315 19.9934 5.41737C20.241 6.0816 20.3648 6.95339 20.3648 8.03276V31.073C20.3648 34.7678 19.3125 37.5492 17.2079 39.4174C15.1033 41.244 12.0084 42.1573 7.92307 42.1573C5.77724 42.1573 4.04406 41.8252 2.72355 41.161C1.77444 40.7043 1.07292 40.0816 0.618989 39.2928C0.20633 38.5041 0 37.6115 0 36.6152C0 35.7849 0.103165 35.0584 0.309495 34.4357C0.55709 33.813 0.845952 33.3148 1.17608 32.9412C1.96013 33.1072 2.62039 33.2318 3.15685 33.3148C3.73457 33.3563 4.35356 33.3771 5.01382 33.3771C6.62319 33.3771 7.77864 32.9827 8.48016 32.1939C9.18168 31.3636 9.53244 30.1597 9.53244 28.5822V3.4247Z" fill="#FF95AF"/>
</svg>
