<svg width="264" height="50" viewBox="0 0 264 50" fill="none" xmlns="http://www.w3.org/2000/svg">
<path d="M254.839 30.1587C254.839 31.2169 255.169 31.9699 255.829 32.4176C256.531 32.8653 257.501 33.0891 258.739 33.0891C259.358 33.0891 259.997 33.0484 260.657 32.967C261.318 32.8449 261.895 32.7025 262.391 32.5397C262.762 32.9874 263.072 33.4961 263.319 34.0659C263.608 34.595 263.752 35.2462 263.752 36.0195C263.752 37.5661 263.154 38.8278 261.957 39.8046C260.802 40.7814 258.739 41.2698 255.767 41.2698C252.136 41.2698 249.33 40.4558 247.349 38.8278C245.41 37.1998 244.44 34.5543 244.44 30.8913V4.76187C244.894 4.63977 245.533 4.51767 246.359 4.39557C247.225 4.23277 248.133 4.15137 249.082 4.15137C250.898 4.15137 252.301 4.47697 253.291 5.12817C254.323 5.73867 254.839 7.06142 254.839 9.09642V13.0036H262.948C263.195 13.4513 263.422 14.0211 263.629 14.713C263.876 15.3642 264 16.0968 264 16.9108C264 18.3353 263.67 19.3732 263.01 20.0244C262.391 20.6349 261.545 20.9401 260.472 20.9401H254.839V30.1587Z" fill="#FF2D55"/>
<path d="M239.229 31.5019C239.229 34.5951 238.053 37.0168 235.701 38.7669C233.348 40.517 229.882 41.392 225.302 41.392C223.568 41.392 221.959 41.2699 220.473 41.0257C218.988 40.7815 217.709 40.4152 216.636 39.9268C215.604 39.3977 214.779 38.7465 214.16 37.9732C213.582 37.1999 213.293 36.2842 213.293 35.226C213.293 34.2492 213.499 33.4352 213.912 32.784C214.325 32.0921 214.82 31.5223 215.398 31.0746C216.594 31.7258 217.956 32.3159 219.483 32.845C221.051 33.3334 222.846 33.5776 224.868 33.5776C226.147 33.5776 227.117 33.3945 227.777 33.0282C228.479 32.6619 228.83 32.1735 228.83 31.563C228.83 30.9932 228.582 30.5455 228.087 30.2199C227.592 29.8943 226.766 29.6297 225.611 29.4262L223.754 29.0599C220.164 28.368 217.482 27.2895 215.707 25.8243C213.974 24.3183 213.107 22.1816 213.107 19.414C213.107 17.9081 213.438 16.5446 214.098 15.3236C214.758 14.1026 215.687 13.0851 216.883 12.2711C218.08 11.4571 219.504 10.8263 221.154 10.3786C222.846 9.93088 224.703 9.70703 226.725 9.70703C228.252 9.70703 229.676 9.82913 230.996 10.0733C232.358 10.2768 233.534 10.6024 234.524 11.0501C235.515 11.4978 236.299 12.088 236.877 12.8206C237.454 13.5125 237.743 14.3468 237.743 15.3236C237.743 16.2597 237.558 17.0737 237.186 17.7656C236.856 18.4168 236.423 18.9663 235.886 19.414C235.556 19.2105 235.061 19.007 234.401 18.8035C233.74 18.5593 233.018 18.3558 232.234 18.193C231.45 17.9895 230.645 17.8267 229.82 17.7046C229.036 17.5825 228.314 17.5214 227.654 17.5214C226.292 17.5214 225.24 17.6842 224.497 18.0098C223.754 18.2947 223.383 18.7628 223.383 19.414C223.383 19.8617 223.589 20.228 224.002 20.5129C224.414 20.7978 225.198 21.0623 226.354 21.3065L228.273 21.7339C232.234 22.6293 235.04 23.8706 236.691 25.4579C238.383 27.0046 239.229 29.0192 239.229 31.5019Z" fill="#FF2D55"/>
<path d="M195.787 41.331C193.352 41.331 191.082 41.0054 188.978 40.3542C186.914 39.6623 185.099 38.6447 183.531 37.3016C182.004 35.9585 180.786 34.2695 179.878 32.2345C179.012 30.1995 178.579 27.8185 178.579 25.0916C178.579 22.4054 179.012 20.1059 179.878 18.193C180.786 16.2394 181.962 14.6521 183.407 13.4311C184.851 12.1694 186.502 11.2536 188.359 10.6838C190.216 10.0733 192.114 9.76807 194.053 9.76807C196.24 9.76807 198.221 10.0937 199.996 10.7449C201.811 11.3961 203.359 12.2915 204.638 13.4311C205.959 14.5707 206.97 15.9341 207.671 17.5214C208.414 19.1087 208.785 20.8385 208.785 22.7107C208.785 24.0945 208.393 25.1527 207.609 25.8853C206.825 26.6179 205.732 27.0859 204.329 27.2894L189.04 29.5483C189.493 30.8914 190.422 31.9089 191.825 32.6008C193.228 33.252 194.837 33.5776 196.653 33.5776C198.345 33.5776 199.934 33.3741 201.419 32.9671C202.946 32.5194 204.184 32.0106 205.133 31.4408C205.794 31.8478 206.351 32.4176 206.805 33.1502C207.258 33.8828 207.485 34.6561 207.485 35.4701C207.485 37.3016 206.619 38.6651 204.886 39.5605C203.565 40.2524 202.08 40.7205 200.429 40.9647C198.778 41.2089 197.231 41.331 195.787 41.331ZM194.053 17.3383C193.063 17.3383 192.196 17.5011 191.454 17.8267C190.752 18.1523 190.174 18.5796 189.72 19.1087C189.266 19.5971 188.916 20.1669 188.668 20.8181C188.462 21.4286 188.338 22.0595 188.297 22.7107L198.881 21.0013C198.758 20.1873 198.304 19.3733 197.52 18.5593C196.736 17.7453 195.58 17.3383 194.053 17.3383Z" fill="#FF2D55"/>
<path d="M143.851 11.111C144.264 10.9889 144.903 10.8668 145.77 10.7447C146.678 10.6226 147.606 10.5615 148.555 10.5615C149.463 10.5615 150.268 10.6226 150.969 10.7447C151.712 10.8668 152.331 11.111 152.826 11.4773C153.322 11.8436 153.693 12.3523 153.941 13.0035C154.229 13.614 154.374 14.428 154.374 15.4455V28.5713C154.374 30.24 154.787 31.4406 155.612 32.1733C156.437 32.8652 157.634 33.2111 159.202 33.2111C160.151 33.2111 160.915 33.1297 161.492 32.9669C162.111 32.8041 162.586 32.6413 162.916 32.4785V11.111C163.329 10.9889 163.968 10.8668 164.835 10.7447C165.743 10.6226 166.671 10.5615 167.62 10.5615C168.528 10.5615 169.333 10.6226 170.034 10.7447C170.777 10.8668 171.396 11.111 171.891 11.4773C172.386 11.8436 172.758 12.3523 173.005 13.0035C173.294 13.614 173.439 14.428 173.439 15.4455V34.0047C173.439 36.0398 172.572 37.566 170.839 38.5835C169.395 39.4789 167.662 40.1505 165.639 40.5982C163.659 41.0866 161.492 41.3308 159.14 41.3308C156.912 41.3308 154.848 41.0866 152.95 40.5982C151.093 40.1098 149.484 39.3568 148.122 38.3393C146.76 37.3218 145.708 36.0194 144.965 34.4321C144.222 32.8041 143.851 30.8505 143.851 28.5713V11.111Z" fill="#FF2D55"/>
<path d="M99.1553 21.7948C99.1553 18.6202 99.6505 15.8119 100.641 13.3699C101.672 10.9279 103.055 8.89291 104.788 7.26491C106.563 5.59621 108.626 4.33451 110.978 3.4798C113.371 2.6251 115.951 2.19775 118.715 2.19775C121.48 2.19775 124.039 2.6251 126.391 3.4798C128.784 4.33451 130.868 5.59621 132.643 7.26491C134.417 8.89291 135.799 10.9279 136.79 13.3699C137.821 15.8119 138.337 18.6202 138.337 21.7948C138.337 25.7834 137.595 29.1819 136.109 31.9902C134.623 34.7578 132.601 36.9352 130.043 38.5225C130.662 38.8074 131.384 39.1127 132.209 39.4383C133.076 39.7639 133.963 40.0895 134.871 40.4151C135.82 40.7407 136.79 41.0459 137.78 41.3308C138.771 41.6564 139.699 41.9413 140.566 42.1855C140.607 42.4297 140.628 42.6332 140.628 42.796C140.628 42.9995 140.628 43.1827 140.628 43.3455C140.628 45.6654 140.009 47.3545 138.771 48.4127C137.574 49.4709 135.985 50 134.004 50C132.106 50 130.146 49.4709 128.124 48.4127C126.102 47.3951 124.039 45.9096 121.934 43.956L119.211 41.4529H118.715C115.909 41.4529 113.31 41.0256 110.916 40.1709C108.523 39.2755 106.459 37.9934 104.726 36.3247C102.993 34.656 101.631 32.6007 100.641 30.1587C99.6505 27.7167 99.1553 24.9287 99.1553 21.7948ZM110.297 21.7948C110.297 25.4985 111.061 28.2661 112.587 30.0976C114.114 31.9291 116.157 32.8449 118.715 32.8449C121.315 32.8449 123.378 31.9291 124.905 30.0976C126.432 28.2661 127.196 25.4985 127.196 21.7948C127.196 18.1318 126.432 15.3846 124.905 13.5531C123.42 11.7216 121.377 10.8058 118.777 10.8058C116.219 10.8058 114.155 11.7216 112.587 13.5531C111.061 15.3439 110.297 18.0911 110.297 21.7948Z" fill="#FF2D55"/>
<path d="M63.8208 0.6105C64.2335 0.488399 64.8937 0.366299 65.8016 0.244201C66.7094 0.0814003 67.6379 0 68.587 0C69.4949 0 70.2996 0.0610493 71.0011 0.183148C71.7439 0.305249 72.3629 0.54945 72.858 0.91575C73.3532 1.28205 73.7246 1.7908 73.9722 2.442C74.2198 3.0525 74.3436 3.8665 74.3436 4.884V10.8669C75.3753 10.4599 76.345 10.175 77.2529 10.0122C78.202 9.84941 79.2336 9.76801 80.3478 9.76801C82.3286 9.76801 84.2062 10.114 85.9806 10.8059C87.7551 11.4978 89.3232 12.5153 90.685 13.8584C92.0467 15.1608 93.1196 16.7888 93.9037 18.7424C94.6877 20.696 95.0798 22.9548 95.0798 25.5189C95.0798 28.1644 94.6671 30.4843 93.8418 32.4786C93.0577 34.4322 91.9436 36.0602 90.4992 37.3626C89.0549 38.665 87.2805 39.6622 85.1759 40.3541C83.1126 41.0053 80.8224 41.3309 78.3052 41.3309C75.5816 41.3309 73.2707 41.0053 71.3725 40.3541C69.4742 39.7436 67.8649 38.9703 66.5444 38.0342C64.7287 36.7725 63.8208 35.1445 63.8208 33.1502V0.6105ZM78.3052 33.1502C80.2034 33.1502 81.6683 32.5193 82.7 31.2576C83.7729 29.9552 84.3094 28.0423 84.3094 25.5189C84.3094 22.9548 83.7729 21.0419 82.7 19.7802C81.6271 18.5185 80.1828 17.8877 78.3671 17.8877C77.5417 17.8877 76.8196 17.9691 76.2006 18.1319C75.6229 18.2947 74.9832 18.5389 74.2817 18.8645V32.1734C74.7356 32.4583 75.2721 32.7025 75.8911 32.906C76.5514 33.0688 77.356 33.1502 78.3052 33.1502Z" fill="#FF2D55"/>
<path d="M58.563 25.519C58.563 28.0424 58.171 30.3012 57.3869 32.2955C56.6028 34.2491 55.4887 35.8975 54.0444 37.2406C52.6413 38.5837 50.9494 39.6012 48.9686 40.2931C46.9879 40.985 44.7801 41.331 42.3455 41.331C39.9108 41.331 37.703 40.9647 35.7223 40.232C33.7415 39.4994 32.029 38.4616 30.5847 37.1185C29.1816 35.7347 28.0881 34.066 27.304 32.1124C26.52 30.1588 26.1279 27.961 26.1279 25.519C26.1279 23.1177 26.52 20.9402 27.304 18.9866C28.0881 17.033 29.1816 15.3847 30.5847 14.0416C32.029 12.6578 33.7415 11.5996 35.7223 10.867C37.703 10.1344 39.9108 9.76807 42.3455 9.76807C44.7801 9.76807 46.9879 10.1547 48.9686 10.928C50.9494 11.6606 52.6413 12.7188 54.0444 14.1026C55.4887 15.4457 56.6028 17.0941 57.3869 19.0477C58.171 21.0013 58.563 23.1584 58.563 25.519ZM36.8983 25.519C36.8983 28.0017 37.3729 29.9146 38.322 31.2577C39.3124 32.5601 40.6742 33.2113 42.4074 33.2113C44.1405 33.2113 45.461 32.5397 46.3689 31.1966C47.318 29.8535 47.7926 27.961 47.7926 25.519C47.7926 23.077 47.318 21.2048 46.3689 19.9024C45.4198 18.5593 44.0786 17.8877 42.3455 17.8877C40.6123 17.8877 39.2711 18.5593 38.322 19.9024C37.3729 21.2048 36.8983 23.077 36.8983 25.519Z" fill="#FF2D55"/>
<path d="M9.53244 3.35756C9.98636 3.27615 10.7085 3.1744 11.6989 3.05231C12.6893 2.88951 13.6384 2.80811 14.5463 2.80811C15.4954 2.80811 16.3207 2.88951 17.0222 3.05231C17.765 3.1744 18.384 3.4186 18.8792 3.7849C19.3744 4.15121 19.7458 4.65996 19.9934 5.31116C20.241 5.96236 20.3648 6.81706 20.3648 7.87526V30.4638C20.3648 34.0861 19.3125 36.813 17.2079 38.6445C15.1033 40.4353 12.0084 41.3307 7.92307 41.3307C5.77724 41.3307 4.04406 41.0051 2.72355 40.3539C1.77444 39.9062 1.07292 39.2957 0.618989 38.5224C0.20633 37.7491 0 36.874 0 35.8972C0 35.0832 0.103165 34.371 0.309495 33.7605C0.55709 33.15 0.845952 32.6616 1.17608 32.2953C1.96013 32.4581 2.62039 32.5802 3.15685 32.6616C3.73457 32.7023 4.35356 32.7226 5.01382 32.7226C6.62319 32.7226 7.77864 32.336 8.48016 31.5627C9.18168 30.7487 9.53244 29.5684 9.53244 28.0218V3.35756Z" fill="#FF2D55"/>
</svg>
