<svg width="544" height="436" viewBox="0 0 544 436" fill="none" xmlns="http://www.w3.org/2000/svg">
<path d="M445.462 435.117C441.574 435.878 403.912 435.992 354.518 435.833H354.381C340.534 435.787 325.773 435.718 310.571 435.635H306.265H305.375C293.11 435.566 280.601 435.482 268.093 435.399L255.159 435.307L214.955 434.995H213.7H209.995C194.603 434.873 179.895 434.744 166.413 434.615H166.094C123.03 434.226 92.5346 433.899 92.5346 433.899C60.5409 409.67 58.9279 337.126 77.2492 303.732C112.248 239.828 65.2734 194.315 84.7055 147.888C110.689 85.7963 147.765 150.4 205.498 85.9333C253.66 32.1536 322.981 50.2933 345.342 70.8156C346.004 71.417 346.651 72.0336 347.305 72.6502C360.833 85.5908 365.763 102.878 382.106 114.289C382.761 114.745 383.423 115.194 384.092 115.636C395.185 122.905 428.222 117.28 439.634 128.66C498.22 187.106 444.839 255.699 469.612 293.592C504.87 347.38 480.5 428.388 445.462 435.117Z" fill="#E3F0FF"/>
<path d="M224.451 434.234H381.635C378.5 395.656 353.072 362.916 353.072 362.916C318.948 358.417 285.418 360.32 251.621 364.804C251.621 364.804 231.298 392.276 224.451 434.234Z" fill="#0154AE"/>
<path d="M352.608 347.418C352.608 347.418 255.432 347.638 253.842 348.027C252.252 348.415 250.875 366.06 250.875 366.06C282.58 367.331 324.396 366.555 354.891 366.06L352.608 347.418Z" fill="#371D15"/>
<path d="M346.035 123.743C346.035 123.743 376.172 119.313 369.111 157.236C366.829 169.484 378.508 185.363 355.933 198.973C342.999 206.753 354.039 223.294 316.103 230.183C301.403 232.863 287.19 227.199 284.398 224.756C274.264 215.804 228.453 239.219 230.918 202.939C231.892 188.606 208.412 187.715 226.596 161.073C237.073 145.772 221.133 126.765 254.847 119.891C263.566 118.117 260.713 91.338 297.584 102.383C308.989 105.877 333.092 90.9421 346.035 123.743Z" fill="#371D15"/>
<path d="M333.382 176.601C331.449 183.665 327.409 187.137 322.73 185.843C321.837 189.411 320.323 192.795 318.256 195.837L325.035 223.614C300.688 240.802 281.56 224.68 281.56 224.68L282.321 209.95L299.927 203.647C289.869 205.558 282.793 202.886 278.365 199.582C271.464 194.437 268.474 186.687 267.256 178.938C267.089 177.865 266.952 176.784 266.861 175.711C266.777 174.782 266.724 173.861 266.686 172.94C266.602 171.182 266.617 169.446 266.686 167.764C266.731 166.607 266.807 165.48 266.906 164.369C266.975 163.607 267.051 162.846 267.135 162.085C268.124 153.712 268.854 151.04 270.178 147.569C274.127 137.087 283.158 129.361 290.827 131.21C298.497 133.06 295.849 139.348 311.081 144.806C320.736 148.269 321.01 156.696 320.341 165.708C320.166 168.076 320.828 169.218 321.9 169.347C322.871 169.342 323.801 168.96 324.495 168.281C325.096 167.817 325.781 167.292 326.595 166.721C330.627 163.882 335.931 167.246 333.382 176.601Z" fill="#B3512A"/>
<path d="M277.132 149.632C279.66 149.291 282.233 149.668 284.558 150.72C284.632 150.758 284.697 150.81 284.751 150.874C284.805 150.937 284.846 151.011 284.871 151.09C284.897 151.169 284.906 151.252 284.899 151.335C284.893 151.418 284.87 151.499 284.832 151.573C284.794 151.647 284.742 151.712 284.678 151.766C284.615 151.82 284.542 151.861 284.462 151.886C284.383 151.912 284.3 151.921 284.217 151.915C284.134 151.908 284.053 151.885 283.98 151.847C283.713 151.71 277.36 148.536 272.164 153.369C272.105 153.428 272.036 153.475 271.96 153.507C271.883 153.539 271.801 153.556 271.718 153.556C271.636 153.556 271.554 153.539 271.477 153.507C271.401 153.475 271.331 153.428 271.273 153.369C271.156 153.251 271.09 153.091 271.09 152.924C271.09 152.757 271.156 152.597 271.273 152.479C272.885 150.946 274.932 149.951 277.132 149.632Z" fill="#371D15"/>
<path d="M306.889 153.377C304.458 152.574 301.849 152.476 299.364 153.095C299.281 153.115 299.203 153.152 299.134 153.204C299.066 153.255 299.009 153.32 298.966 153.394C298.923 153.468 298.896 153.55 298.886 153.635C298.876 153.72 298.884 153.806 298.908 153.888C298.932 153.97 298.973 154.047 299.027 154.112C299.082 154.178 299.149 154.232 299.225 154.271C299.301 154.31 299.385 154.334 299.47 154.339C299.555 154.345 299.641 154.334 299.722 154.305C300.011 154.222 306.843 152.281 311.051 158.005C311.152 158.14 311.302 158.23 311.469 158.254C311.636 158.278 311.806 158.235 311.941 158.134C312.076 158.033 312.166 157.883 312.19 157.716C312.214 157.549 312.171 157.379 312.07 157.244C310.778 155.456 308.97 154.107 306.889 153.377Z" fill="#371D15"/>
<path d="M280.366 161.377C280.145 163.28 278.631 164.666 276.995 164.468C275.359 164.27 274.21 162.572 274.439 160.662C274.667 158.751 276.181 157.381 277.817 157.571C279.453 157.761 280.594 159.451 280.366 161.377Z" fill="#371D15"/>
<path d="M305.671 165.039C305.443 166.942 303.929 168.319 302.293 168.129C300.657 167.939 299.516 166.234 299.737 164.323C299.957 162.412 301.479 161.035 303.115 161.233C304.751 161.43 305.862 163.136 305.671 165.039Z" fill="#371D15"/>
<path d="M288.59 176.038C287.279 175.811 286.092 175.123 285.243 174.097C284.819 173.608 284.543 173.009 284.445 172.369C284.346 171.73 284.43 171.075 284.687 170.481C285.676 168.266 286.551 166.188 287.259 164.392C287.284 164.303 287.328 164.22 287.388 164.15C287.447 164.08 287.522 164.024 287.605 163.985C287.689 163.946 287.78 163.926 287.872 163.926C287.964 163.925 288.056 163.945 288.14 163.984C288.223 164.022 288.298 164.078 288.358 164.148C288.418 164.218 288.463 164.3 288.488 164.388C288.514 164.477 288.52 164.57 288.506 164.661C288.492 164.753 288.458 164.84 288.408 164.917C287.692 166.683 286.825 168.723 285.844 170.953C285.684 171.338 285.635 171.759 285.704 172.17C285.772 172.581 285.955 172.964 286.232 173.275C286.822 173.938 287.58 174.43 288.427 174.698C289.273 174.966 290.176 175 291.04 174.797C291.199 174.781 291.358 174.825 291.485 174.921C291.613 175.017 291.699 175.158 291.727 175.315C291.755 175.472 291.722 175.634 291.636 175.768C291.549 175.902 291.415 175.999 291.261 176.038C290.379 176.206 289.473 176.206 288.59 176.038Z" fill="#371D15"/>
<path d="M316.118 177.058C316.035 178.32 315.576 179.528 314.8 180.526C314.024 181.524 312.966 182.267 311.764 182.657C310.561 183.047 309.27 183.067 308.056 182.714C306.842 182.362 305.762 181.653 304.955 180.679C304.148 179.706 303.652 178.512 303.53 177.254C303.409 175.995 303.668 174.729 304.273 173.619C304.879 172.509 305.804 171.606 306.928 171.028C308.052 170.45 309.324 170.222 310.579 170.375C312.198 170.529 313.69 171.319 314.728 172.572C315.766 173.824 316.266 175.438 316.118 177.058Z" fill="#FF2D55"/>
<path d="M266.898 164.376C266.8 165.48 266.723 166.614 266.678 167.771C266.609 169.454 266.594 171.189 266.678 172.948C266.716 173.869 266.777 174.79 266.86 175.718C267.282 175.855 267.715 175.952 268.154 176.008C268.955 176.152 269.777 176.131 270.57 175.946C271.363 175.761 272.11 175.416 272.765 174.932C273.42 174.448 273.969 173.836 274.379 173.132C274.789 172.428 275.051 171.648 275.149 170.84C275.248 170.031 275.18 169.211 274.95 168.429C274.72 167.648 274.333 166.922 273.812 166.295C273.292 165.669 272.649 165.155 271.924 164.786C271.198 164.417 270.404 164.2 269.592 164.148C268.688 164.033 267.77 164.111 266.898 164.376Z" fill="#FF2D55"/>
<path d="M293.688 184.214C293.835 184.214 293.978 184.163 294.093 184.071C294.207 183.979 294.287 183.851 294.319 183.707C294.351 183.563 294.333 183.413 294.268 183.281C294.203 183.149 294.095 183.043 293.962 182.98C291.626 181.883 289.035 181.441 286.468 181.702C286.296 181.713 286.136 181.791 286.023 181.921C285.909 182.05 285.852 182.219 285.863 182.39C285.874 182.562 285.953 182.722 286.082 182.836C286.211 182.949 286.38 183.007 286.551 182.996C288.896 182.753 291.263 183.153 293.399 184.153C293.488 184.198 293.588 184.219 293.688 184.214Z" fill="#371D15"/>
<path d="M228.826 243.139C243.366 219.755 263.178 217.303 281.986 215.332C292.813 220.79 310.191 222.183 322.874 215.812C335.337 215.773 358.048 222.137 365.322 228.958C372.368 235.565 379.405 247.135 378.492 268.952C377.876 283.841 375.776 300.923 373.494 322.138C371.622 339.608 362.142 349.541 333.975 346.831L356.694 323.196L361.533 353.043C314.125 359.894 255.014 353.911 244.667 352L249.475 309.563L228.826 243.139Z" fill="#FFB4C7"/>
<path d="M328.033 363.449C328.033 363.449 327.668 369.95 334.774 373.756C334.774 373.756 341.561 364.621 328.033 363.449Z" fill="#B3512A"/>
<path d="M306.736 368.633C316.666 369.752 316.437 341.663 311.72 335.55C295.864 334.584 286.84 366.197 306.736 368.633Z" fill="#371D15"/>
<path d="M298.39 356.644L327.614 364.697C327.614 364.697 330.597 366.463 333.755 368.275C333.23 369.06 332.984 369.998 333.056 370.939C333.128 371.88 333.513 372.77 334.15 373.466C335.725 375.194 340.937 373.52 345.913 371.54C354.746 367.734 357.706 363.761 356.519 359.803C355.157 355.281 351.787 350.211 348.751 346.984C348.355 346.557 347.967 346.169 347.587 345.819C344.867 346.357 342.095 346.587 339.324 346.504C331.031 346.238 324.244 343.086 319.116 337.126L316.925 336.593C310.503 335.025 305.71 333.891 305.71 333.891C292.669 340.65 292.265 358.25 298.39 356.644Z" fill="#B3512A"/>
<path d="M352.106 366.593C352.024 366.552 351.95 366.496 351.89 366.426C351.83 366.357 351.785 366.276 351.756 366.189C350.166 361.333 346.134 352.883 346.103 352.822C346.023 352.659 346.012 352.47 346.071 352.298C346.13 352.126 346.255 351.985 346.419 351.905C346.582 351.825 346.771 351.814 346.943 351.873C347.115 351.932 347.256 352.057 347.336 352.221C347.336 352.282 351.444 360.815 353.065 365.763C353.118 365.937 353.102 366.124 353.02 366.286C352.937 366.448 352.795 366.572 352.624 366.631C352.539 366.659 352.45 366.67 352.361 366.663C352.272 366.657 352.186 366.633 352.106 366.593Z" fill="#371D15"/>
<path d="M347.26 369.676C347.098 369.594 346.975 369.452 346.917 369.28C345.327 364.423 342.078 356.834 342.048 356.765C341.968 356.602 341.957 356.413 342.016 356.241C342.075 356.069 342.2 355.928 342.364 355.848C342.527 355.768 342.716 355.757 342.887 355.816C343.059 355.875 343.201 356 343.28 356.164C343.319 356.232 346.605 363.905 348.218 368.846C348.248 368.931 348.26 369.022 348.254 369.112C348.249 369.202 348.225 369.29 348.184 369.371C348.144 369.452 348.088 369.524 348.019 369.583C347.951 369.642 347.871 369.686 347.785 369.714C347.699 369.743 347.609 369.756 347.518 369.749C347.428 369.742 347.34 369.717 347.26 369.676Z" fill="#371D15"/>
<path d="M342.314 371.198C342.151 371.114 342.028 370.969 341.972 370.794C340.593 366.903 339 363.092 337.201 359.376C337.142 359.215 337.144 359.037 337.208 358.878C337.273 358.718 337.394 358.588 337.549 358.513C337.703 358.438 337.88 358.423 338.045 358.472C338.21 358.52 338.352 358.628 338.441 358.775C340.265 362.542 341.878 366.407 343.273 370.353C343.301 370.438 343.313 370.529 343.306 370.619C343.3 370.709 343.276 370.796 343.236 370.877C343.196 370.958 343.14 371.029 343.072 371.088C343.004 371.147 342.924 371.192 342.839 371.221C342.667 371.276 342.481 371.268 342.314 371.198Z" fill="#371D15"/>
<path d="M251.423 307.576L311.948 335.276C302.818 336.403 301.54 366.296 306.736 368.633C303.876 368.633 259.206 361.409 226.748 349.922C205.445 342.386 203.162 326.705 208.83 302.635C215.838 273.017 224.413 238.199 242.848 227.808C260.386 227.496 251.423 307.576 251.423 307.576Z" fill="#FFB4C7"/>
<path d="M289.351 237.841C289.389 229.749 322.022 220.577 320.812 227.945C314.55 247.044 291.869 258.188 289.351 237.841Z" fill="#371D15"/>
<path d="M314.277 191.262C319.945 195.145 325.408 203.586 325.552 206.844C325.601 207.279 325.601 207.719 325.552 208.154C325.126 220.196 323.589 240.452 323.589 240.452C313.516 250.508 296.8 250.964 300.079 245.78L301.296 216.481C301.296 216.481 300.536 213.216 299.775 209.783C298.899 210.033 297.964 209.982 297.12 209.638C296.276 209.295 295.571 208.678 295.118 207.887C293.985 205.931 297.059 201.615 300.345 197.611C306.432 190.554 310.974 189.002 314.277 191.262Z" fill="#B3512A"/>
<path d="M299.965 246.458H300.087C300.176 246.462 300.266 246.448 300.35 246.417C300.434 246.387 300.511 246.339 300.577 246.279C300.643 246.218 300.696 246.144 300.733 246.063C300.771 245.981 300.791 245.893 300.794 245.803L301.951 216.497C301.962 216.436 301.962 216.374 301.951 216.314C301.951 216.314 301.19 213.01 300.429 209.623C300.409 209.53 300.371 209.442 300.316 209.365C300.261 209.288 300.191 209.223 300.11 209.174C300.028 209.128 299.938 209.099 299.846 209.089C299.753 209.078 299.659 209.086 299.569 209.113C298.84 209.321 298.062 209.278 297.359 208.991C296.657 208.704 296.071 208.189 295.697 207.53C294.974 206.281 296.709 203.084 300.855 198.03C306.31 191.712 310.693 189.656 313.881 191.81C319.549 195.685 324.738 203.929 324.86 206.86C324.86 206.86 324.86 206.913 324.86 206.943C324.894 207.272 324.894 207.604 324.86 207.933V208.116C324.761 210.856 324.594 214.259 324.373 218.225C324.359 218.319 324.365 218.415 324.391 218.506C324.416 218.598 324.46 218.683 324.52 218.757C324.58 218.831 324.655 218.891 324.74 218.934C324.825 218.977 324.917 219.003 325.012 219.008C325.107 219.013 325.202 218.999 325.291 218.965C325.38 218.932 325.461 218.88 325.529 218.814C325.597 218.747 325.651 218.667 325.686 218.579C325.722 218.49 325.738 218.396 325.735 218.301C325.956 214.327 326.123 210.917 326.222 208.161V207.994C326.25 207.58 326.235 207.164 326.176 206.753C325.978 203.122 320.249 194.574 314.611 190.684C310.754 188.042 305.763 190.212 299.782 197.131C294.959 203.016 293.376 206.319 294.456 208.215C294.922 209.031 295.62 209.691 296.461 210.109C297.303 210.528 298.249 210.687 299.181 210.567C299.805 213.414 300.399 216.025 300.52 216.535L299.364 245.75C299.355 245.922 299.412 246.092 299.524 246.223C299.636 246.355 299.793 246.439 299.965 246.458Z" fill="#371D15"/>
<path d="M305.443 192.465C305.455 192.552 305.485 192.635 305.531 192.71C305.576 192.785 305.637 192.849 305.709 192.899C309.719 195.792 316.316 201.988 316.361 202.034C316.423 202.103 316.498 202.158 316.582 202.197C316.666 202.235 316.757 202.256 316.85 202.258C316.942 202.259 317.034 202.242 317.12 202.206C317.205 202.17 317.282 202.117 317.346 202.05C317.41 201.983 317.459 201.903 317.49 201.816C317.522 201.729 317.535 201.637 317.529 201.544C317.523 201.452 317.498 201.362 317.456 201.28C317.413 201.197 317.354 201.125 317.282 201.067C317.229 201.021 310.564 194.756 306.485 191.818C306.343 191.715 306.165 191.673 305.992 191.7C305.818 191.727 305.662 191.822 305.557 191.963C305.455 192.109 305.414 192.289 305.443 192.465Z" fill="#371D15"/>
<path d="M301.601 196.461C301.613 196.548 301.643 196.632 301.689 196.706C301.734 196.781 301.795 196.845 301.867 196.895C305.869 199.788 311.911 205.01 311.956 205.056C312.082 205.18 312.251 205.25 312.428 205.25C312.605 205.25 312.774 205.18 312.9 205.056C313.024 204.931 313.093 204.763 313.093 204.587C313.093 204.412 313.024 204.243 312.9 204.119C312.846 204.066 306.744 198.791 302.666 195.845C302.524 195.742 302.346 195.7 302.173 195.727C301.999 195.754 301.843 195.848 301.738 195.99C301.633 196.123 301.584 196.292 301.601 196.461Z" fill="#371D15"/>
<path d="M298.321 200.564C298.335 200.652 298.365 200.736 298.41 200.812C298.456 200.888 298.516 200.954 298.588 201.006C301.771 203.415 304.819 205.996 307.718 208.74C307.842 208.864 308.01 208.934 308.186 208.934C308.361 208.934 308.53 208.864 308.654 208.74C308.778 208.614 308.848 208.445 308.848 208.268C308.848 208.091 308.778 207.921 308.654 207.796C305.716 205.013 302.63 202.39 299.409 199.94C299.266 199.838 299.088 199.797 298.914 199.826C298.74 199.854 298.585 199.95 298.481 200.092C298.369 200.223 298.311 200.392 298.321 200.564Z" fill="#371D15"/>
<path d="M356.839 345.507C351.908 345.766 309.316 365.512 297.234 318.103C289.199 286.551 289.351 237.841 289.351 237.841C290.614 243.109 322.646 242.287 324.388 233.061L340.366 284.587C340.366 284.587 365.208 345.065 356.839 345.507Z" fill="#FFB4C7"/>
<path d="M341.858 285.371C341.977 285.405 342.103 285.405 342.223 285.371C342.393 285.311 342.533 285.186 342.612 285.024C342.692 284.862 342.705 284.675 342.649 284.503L330.331 247.775C330.273 247.604 330.15 247.463 329.989 247.384C329.828 247.304 329.641 247.291 329.471 247.349C329.3 247.406 329.16 247.529 329.08 247.69C329 247.852 328.987 248.038 329.045 248.209L341.355 284.937C341.395 285.047 341.462 285.144 341.55 285.22C341.638 285.296 341.744 285.348 341.858 285.371Z" fill="#371D15"/>
<path d="M289.884 256.331C289.937 256.902 295.126 313.582 302.56 331.896C302.78 332.445 303.008 332.97 303.252 333.487C308.015 343.688 316.361 347.753 322.676 349.366L323.764 349.625C326.491 350.222 329.274 350.528 332.065 350.539C333.4 350.553 334.735 350.479 336.06 350.318C336.235 350.29 336.392 350.195 336.499 350.053C336.605 349.911 336.652 349.733 336.63 349.557C336.606 349.379 336.512 349.219 336.369 349.11C336.227 349.002 336.047 348.954 335.87 348.978C334.317 349.159 332.753 349.222 331.19 349.168C328.418 349.1 325.662 348.722 322.973 348.042C314.939 345.979 308.996 341.434 305.276 334.5C304.738 333.494 304.255 332.46 303.83 331.402C296.473 313.277 291.299 256.803 291.246 256.224C291.23 256.045 291.143 255.879 291.004 255.763C290.866 255.647 290.687 255.592 290.508 255.608C290.328 255.624 290.162 255.711 290.047 255.849C289.931 255.988 289.875 256.166 289.891 256.346L289.884 256.331Z" fill="#371D15"/>
<path d="M250.251 308.093C250.395 308.095 250.535 308.049 250.65 307.963C250.764 307.876 250.847 307.754 250.885 307.615C250.922 307.477 250.912 307.329 250.857 307.197C250.801 307.064 250.703 306.954 250.578 306.883C250.16 306.632 240.063 300.793 229.754 305.292C229.597 305.361 229.473 305.489 229.41 305.649C229.347 305.809 229.351 305.987 229.419 306.145C229.488 306.302 229.616 306.426 229.776 306.489C229.936 306.551 230.114 306.548 230.271 306.48C239.965 302.255 249.825 307.949 249.924 308.002C250.023 308.062 250.136 308.094 250.251 308.093Z" fill="#371D15"/>
<path d="M152.406 125.387C151.71 125.387 151.042 125.11 150.55 124.618C150.058 124.125 149.781 123.457 149.781 122.761C149.781 112.492 154.103 108.039 157.58 104.492C158.654 103.465 159.625 102.336 160.479 101.12C162.807 97.4733 163.362 94.025 162.038 91.4217C160.95 89.2674 158.584 87.882 155.716 87.707C150.473 87.3796 146.35 92.8756 146.312 92.9289C145.895 93.4752 145.281 93.8365 144.601 93.9351C143.922 94.0338 143.23 93.862 142.676 93.4566C142.121 93.0512 141.748 92.4445 141.635 91.7666C141.523 91.0888 141.68 90.3938 142.074 89.8307C142.302 89.511 147.909 81.9446 156.035 82.4546C160.783 82.7515 164.777 85.2102 166.687 89.0391C168.886 93.3704 168.209 98.6684 164.869 103.951C163.829 105.47 162.636 106.878 161.308 108.153C158.204 111.35 154.993 114.662 154.993 122.791C154.985 123.476 154.71 124.13 154.227 124.615C153.744 125.1 153.09 125.377 152.406 125.387Z" fill="#0154AE"/>
<path d="M155.213 131.515C155.213 132.102 155.039 132.676 154.713 133.164C154.387 133.652 153.924 134.033 153.382 134.258C152.839 134.482 152.243 134.541 151.667 134.426C151.092 134.312 150.563 134.029 150.148 133.614C149.733 133.199 149.45 132.67 149.336 132.094C149.221 131.518 149.28 130.921 149.505 130.379C149.729 129.836 150.11 129.373 150.598 129.046C151.086 128.72 151.659 128.546 152.246 128.546C153.032 128.548 153.786 128.861 154.342 129.418C154.898 129.974 155.211 130.728 155.213 131.515Z" fill="#0154AE"/>
<path d="M189.452 167.878C188.755 167.878 188.088 167.601 187.595 167.109C187.103 166.616 186.827 165.948 186.827 165.252C186.827 154.983 191.148 150.53 194.625 146.983C195.7 145.956 196.67 144.827 197.524 143.61C199.852 139.964 200.408 136.516 199.084 133.913C197.996 131.758 195.63 130.373 192.754 130.198C187.519 129.871 183.395 135.367 183.357 135.42C182.947 135.983 182.329 136.36 181.641 136.468C180.952 136.576 180.249 136.405 179.686 135.995C179.123 135.584 178.746 134.966 178.639 134.277C178.531 133.588 178.701 132.885 179.112 132.322C179.347 132.002 184.955 124.436 193.081 124.946C197.829 125.242 201.823 127.701 203.771 131.53C205.97 135.861 205.292 141.159 201.952 146.442C200.913 147.961 199.719 149.369 198.392 150.644C195.287 153.841 192.076 157.152 192.076 165.282C192.068 165.973 191.788 166.634 191.297 167.12C190.806 167.605 190.143 167.878 189.452 167.878Z" fill="#0154AE"/>
<path d="M192.244 174.006C192.244 174.593 192.07 175.167 191.744 175.655C191.418 176.143 190.954 176.524 190.412 176.748C189.87 176.973 189.273 177.032 188.698 176.917C188.122 176.803 187.593 176.52 187.178 176.105C186.763 175.69 186.481 175.161 186.366 174.585C186.252 174.009 186.31 173.412 186.535 172.87C186.76 172.327 187.14 171.863 187.628 171.537C188.116 171.211 188.69 171.037 189.276 171.037C190.063 171.039 190.816 171.352 191.372 171.909C191.928 172.465 192.242 173.219 192.244 174.006Z" fill="#0154AE"/>
</svg>
