<svg width="1728" height="618" viewBox="0 0 1728 618" fill="none" xmlns="http://www.w3.org/2000/svg">
<g clip-path="url(#clip0_234_2742)">
<path d="M0 319.81C67.1388 325.16 189.74 333.81 241.289 330.27C314.062 325.27 372.365 296.84 390.015 293.74C407.666 290.64 423.645 293.3 433.04 289.31C442.436 285.32 442.716 277.26 448.479 276.47C459.776 274.92 464.489 280.47 476.596 279.13C488.703 277.79 507.473 267.61 524.013 266.29C540.552 264.97 570.32 262.74 578.594 266.29C586.869 269.84 592.372 262.29 598.986 262.29C605.6 262.29 619.118 270.04 624.351 270.04C629.584 270.04 634.827 265.39 637.859 265.39C643.122 265.39 644.863 268.39 646.614 268.66C648.365 268.93 651.367 266.5 653.158 266.72C654.949 266.94 661.162 270.48 662.943 270.37C664.724 270.26 669.427 267.37 673.83 268.05C678.232 268.73 706.228 285.76 712.012 285.76C717.795 285.76 720.557 283.55 724.969 283.55C729.382 283.55 731.173 289.75 736.546 289.97C746.471 290.38 766.993 284.03 779.431 284.33C794.439 284.7 821.915 292.69 830.37 292.99C839.605 293.33 875.756 282.22 888.994 281.78C902.232 281.34 926.466 285.4 941.734 284.73C958.454 283.99 960.175 279.24 981.067 277.94C1011.93 276.02 1041.71 290.63 1057.11 291.08C1072.51 291.53 1093.49 289.75 1111.14 290.63C1128.79 291.51 1213.32 309.23 1252.28 308.05C1287.61 306.98 1289.41 291.22 1313.67 291.81C1337.93 292.4 1330.58 296.54 1359.98 295.95C1389.37 295.36 1405.55 277.64 1423.93 277.05C1442.31 276.46 1459.03 286.22 1468.78 285.32C1478.33 284.44 1482.79 280.59 1491.56 280.59C1500.34 280.59 1503.33 291.22 1529.05 291.22C1554.78 291.22 1556.99 279.41 1584.93 279.41C1612.86 279.41 1631.95 285.91 1645.96 287.68C1659.97 289.45 1657.72 279.41 1679.04 280.59C1694.05 281.43 1716.61 290.04 1728.66 295.07V618H0V319.81Z" fill="#D0E4F9"/>
<path d="M0 310.28C48.7682 296.84 122.631 271.33 164.355 272.46C172.129 272.67 180.744 273.3 190.01 274.28C199.275 275.26 209.211 276.58 219.627 278.16C230.043 273.92 240.949 281.28 252.166 283.64C263.382 276.04 274.909 292.25 286.576 290.22C298.252 297.64 310.059 301.99 321.836 297.42C333.613 288.42 345.36 290.6 356.856 304.78C368.393 302.7 379.73 296.15 390.676 311.78C401.672 314.05 412.238 316.15 422.244 318C432.25 319.85 441.725 321.56 450.47 322.94C462.068 324.817 473.758 326.066 485.491 326.68C495.907 321.21 505.242 335.76 514.027 326.48C522.802 324.48 531.037 331.04 539.222 323.83C547.406 333.75 555.571 313.26 564.236 320.18C572.901 311.3 582.046 317.63 592.252 317.04C602.428 316.87 613.625 306.94 626.362 315.85C645.473 316 659.131 317.34 669.387 319.25C700.075 325 700.005 336 724.119 336C748.453 336 752.055 324.71 788.076 324.12C824.096 323.53 877.757 337.12 931.418 333.57C985.079 330.02 1006.4 310.57 1034.34 313.49C1062.27 316.41 1067.72 321.01 1079.18 321.76C1089.67 322.44 1100.83 312.9 1117.41 312.9C1135.92 312.9 1136.52 319.4 1146.07 319.99C1155.63 320.58 1158.57 316.45 1169.6 316.45C1180.62 316.45 1201.94 323.53 1215.17 322.35C1228.4 321.17 1236.49 300.8 1277.66 322.94C1335.03 353.8 1462.17 357.19 1494.51 351.87C1526.86 346.55 1634.95 295.22 1670.97 294C1690.3 293.53 1709.64 295.014 1728.68 298.43V618H0V310.28Z" fill="#A4BFDA"/>
<path d="M0 412.94C80.7367 421.33 244.641 436.99 297.582 431.66C403.173 421 420.903 399.15 467.75 398.25C507.453 397.5 515.448 393.61 554.31 395.15C582.737 396.29 600.627 370.36 621.029 370.8C641.431 371.24 661.823 380.1 681.674 373.01C701.526 365.92 713.092 357.07 737.906 357.51C762.721 357.95 843.488 389.34 871.224 390.28C927.716 392.22 1003.58 374 1046.66 373C1079.09 372.3 1084.14 400.9 1122.7 400.46C1161.26 400.02 1236.32 387.13 1304.08 391.16C1361.12 394.55 1370.24 433.3 1412.7 435.96C1455.15 438.62 1477.73 427.71 1516.21 426.59C1559.77 425.31 1690.83 475.75 1728.61 490.68V618H0V412.94Z" fill="#8CACCE"/>
<path d="M0 292.94C21.0121 298.09 84.2487 321.82 123.722 325.25C137.319 326.43 155.52 326.87 175.411 327.25C185.347 327.44 195.723 327.61 206.149 327.85C211.005 330.084 216.259 331.324 221.602 331.496C226.945 331.668 232.268 330.768 237.257 328.85C247.443 329.2 257.339 324.15 266.564 330.77C275.789 321.77 284.344 352.41 291.879 334.1C303.185 324.73 311.14 349.1 317.724 341.1C324.307 339.44 329.51 332.51 335.294 348.42C341.087 358.42 347.461 352.42 356.386 354.32C365.311 360.15 376.788 339.27 392.777 357.11C405.564 343.64 417.741 364.71 429.378 357.49C441.025 357.62 452.141 357.82 462.818 358.25C494.836 359.55 522.852 362.95 549.348 373.05C593.453 389.88 695.432 440.36 751.134 439.92C806.836 439.48 860.297 422.65 898.89 432.83C937.482 443.01 1004.74 467.05 1059.88 470.48C1110.83 473.64 1647.42 470.96 1728.65 470.53V618H0V292.94Z" fill="#7998B9"/>
<path d="M42.3545 399.64C51.3597 405.36 61.0953 424.51 71.2412 398.32C81.387 391.66 91.9331 393.32 102.549 400.78C109.713 392.61 117.638 388.78 126.163 406.56C134.688 409.45 143.813 424.56 153.369 416.5C162.934 416.84 172.94 424.75 183.216 429.43C234.626 452.81 293.029 483.81 338.516 498.21C411.288 521.21 437.753 498.21 532.628 498.21C627.503 498.21 638.439 526.55 724.419 563.75C810.398 600.95 779.551 579.69 909.666 593.86C932.539 596.35 958.294 605.17 985.169 618H0V406.89C4.6627 405.73 10.7562 404.36 17.9304 403.06C25.0945 399.94 33.3593 411.26 42.3545 399.64Z" fill="#5982AE"/>
<path d="M0 493C2.0943 493.066 4.17942 493.307 6.2336 493.72C28.5565 498.37 31.0279 466.8 70.7209 475.3C110.414 483.8 168.317 497.71 209.661 471.14C217.846 465.917 225.733 460.242 233.285 454.14C239.288 449.31 243.951 445.24 249.034 441.57C254.117 430.57 259.62 433 267.264 431.5C274.899 439.88 284.685 428.57 298.332 421.94C309.239 402.56 319.455 422.37 329.14 418.64C338.836 419.56 347.991 417.64 356.796 422.31C365.611 425.31 374.066 437.03 382.341 429.31C390.626 433.31 398.72 440.43 406.825 436.17C414.824 438.119 423.017 439.159 431.249 439.27H543.714C586.739 439.27 606.561 457.87 646.254 468.49C685.947 479.11 899.3 483.11 958.844 506.99C1018.39 530.87 1049.81 538.9 1163.96 541.76C1278.12 544.62 1397.16 505.69 1425.27 507.02C1453.39 508.35 1559.24 533.59 1559.24 533.59L1728.64 546.11V618H0V493Z" fill="#2464A9"/>
<path d="M54.4415 539.17C64.8275 534.82 72.8221 537.4 103.69 548.62C157.421 568.14 257.409 480.3 293.8 479.39C311.44 478.95 323.567 488.47 337.355 490.9C349.032 492.97 359.368 480.27 369.053 478.95C392.347 475.74 388.164 498.43 408.016 487.8C427.867 477.17 445.508 469.11 475.645 464.18C521.892 456.62 513.667 483.4 540.332 476.58C552.419 473.5 564.426 466.94 582.977 479.58C582.977 479.58 599.877 476.58 649.866 487.25C699.855 497.92 751.314 546.3 751.314 546.3C751.314 546.3 757.928 546.3 774.098 548.07C790.267 549.84 802.034 559.88 802.034 559.88C802.034 559.88 891.715 552.05 967.799 562.88C1106.58 582.71 1076.41 590.53 1128.24 590.09C1168.4 589.75 1186.5 554.88 1227.66 553.78C1271.14 552.61 1278.49 569.93 1305.58 562.78C1335.33 554.93 1362.92 539.56 1401.88 536.51C1432.69 534.09 1448.69 551.99 1486.05 543.15C1517.07 535.81 1516.47 550.23 1571.51 550.23C1599.62 550.23 1599.59 543.23 1609 540.93C1618.57 538.65 1627.74 545.81 1648.69 544.48C1669.65 543.15 1665.78 532.08 1672.95 530.31C1680.11 528.54 1688.39 542.26 1702.17 535.62C1714.71 529.62 1720.78 519.62 1728.64 517.99V618H0V590.59C26.9556 590.71 39.9031 545.27 54.4415 539.17Z" fill="#0C4B8F"/>
<path d="M1376.44 171.89C1379.97 171.76 1389.67 174.82 1394.56 181.89C1396.42 184.63 1397.56 187.796 1397.88 191.095C1398.19 194.394 1397.66 197.719 1396.35 200.76C1394.81 203.793 1393.11 206.747 1391.27 209.61L1396.28 220.61L1403.28 235.89L1375.92 234.21L1372.79 220.7C1372.79 220.7 1370.19 223.58 1368.02 224.09C1366.02 224.55 1361.52 220.09 1360.15 218.66C1357.27 215.58 1355.14 211.66 1355.37 207.08C1355.43 205.94 1355.89 201.16 1355.89 201.16L1355.48 196.73C1358.34 177.67 1364.67 172.35 1376.44 171.89Z" fill="#DD8C5C"/>
<path d="M1364.43 206.52C1361.94 203.72 1359.64 192.32 1359.64 192.32L1355.95 187.79C1356.33 175.87 1367.96 172.27 1376.41 170.11C1381.34 168.85 1394.59 172.43 1397.57 180.45C1399.88 186.64 1399.78 189.51 1399.78 189.51C1399.78 189.51 1405.62 189.51 1407.14 190.57C1430.84 206.99 1404.02 224.5 1404.02 224.5L1402.66 214.58L1400.3 214.47L1395.3 206.91L1391.74 210.56C1391.74 210.56 1388.53 211.48 1387.34 211.7C1376.2 213.76 1367.73 210.25 1364.43 206.52Z" fill="#1E1E1E"/>
<path d="M1323.56 288.6L1329.12 285.04L1423.17 343.82L1409.58 377.59C1409.58 377.59 1343.69 312.41 1335.73 310.5C1335.46 310.44 1334.32 331.31 1331.36 335.5C1328.55 339.42 1310.55 374.41 1304.57 390.39H1292.85L1323.56 288.6Z" fill="#1E1E1E"/>
<path d="M1305.31 388.47L1304.99 400.2L1299.84 402.43L1273.9 393.81L1269.87 390.84L1271.5 388.76L1293.85 387.04L1292.94 390.08L1299.62 390.22L1305.31 388.47Z" fill="#A05C3B"/>
<path d="M1436.22 331.3L1438.72 337.74L1441.83 349.18C1443.1 358.36 1446.21 370.11 1432.26 375.56C1387.78 392.93 1366.48 362.37 1352.79 349.56C1345.86 343.09 1327 321.91 1326.38 322.33C1326.15 322.48 1318.37 339.06 1318.37 339.06C1318.37 339.06 1291.02 374.72 1282.49 393.85H1268.55L1314.31 290L1326.38 288.14L1398.36 329L1436.22 331.3Z" fill="#1E1E1E"/>
<path d="M1283.34 392.02L1282.48 403.86L1277.32 406.09L1251.34 399.6L1251.71 396.13L1255.16 394.19L1270.09 390.35L1268.61 393.71L1277.11 393.88L1283.34 392.02Z" fill="#A05C3B"/>
<path d="M1323.57 281C1322.21 278.4 1319.42 277.71 1316.03 277.94C1309.67 278.38 1306.56 287.74 1306.03 290.8C1305.6 293.53 1307.75 300.07 1309.52 300.8L1314.26 290.04L1323.57 281Z" fill="#DD8C5C"/>
<path d="M1402.66 214.58C1398.22 214.03 1388.43 215.33 1383.34 220.36C1378.25 225.39 1372.56 234.36 1363.55 239.53L1370.75 247.85L1348.18 287.22C1348.18 287.22 1329.43 281.39 1323.04 280.98C1317.11 280.6 1311.68 287.91 1315.56 290.82C1315.56 290.82 1353.4 314.89 1358.76 310.44C1365.35 304.96 1369.97 299.2 1375.42 291.99L1377.97 317.16L1372.7 320.16C1375.89 329.58 1390.88 342 1405.08 343.26C1421.9 344.75 1429.57 342.91 1440.66 338.79L1433.45 324.59C1433.45 324.59 1443.45 314.59 1443.04 301.47C1442.82 294.93 1436.77 286.06 1436.77 286.06C1436.77 286.06 1432.16 263.48 1428.46 255.98C1424.24 247.45 1405.08 224.45 1405.08 224.45L1402.66 214.58Z" fill="#59466B"/>
<path d="M1197.48 441.68L1164.59 439.42C1163.08 439.36 1162.32 437.63 1164.21 436.86C1170.32 434.37 1177.33 431.21 1182.31 431.03L1182.81 426.77H1198.33C1198.33 427.68 1198.23 429.12 1197.48 441.68Z" fill="#A05C3B"/>
<path d="M1249.13 424.4L1250.02 423.12L1265.22 423.51L1264.86 436.43L1234.46 435.88C1233.17 434.76 1233.1 433.88 1233.59 432.05C1233.68 431.72 1233.85 431.414 1234.07 431.156C1234.3 430.898 1234.58 430.694 1234.89 430.56L1249.13 424.4Z" fill="#A05C3B"/>
<path d="M1263.06 185.56H1187.09L1181.14 330.2L1184.96 346.74L1181.14 427.33H1203.22L1208.73 340.38L1214.25 285.66L1226.56 239L1237.6 321.89L1248.2 378.13L1249.05 423.08L1272.82 423.93V356.07L1263.9 259.79V217.37L1263.06 185.56Z" fill="#1E1E1E"/>
<path d="M1273.86 182.06L1268.76 187.63H1267.4L1261.28 182.06L1262.31 204.09H1269.63L1274.81 197.97L1277.59 187.31L1273.86 182.06Z" fill="#DD8C5C"/>
<path d="M1245.31 70H1220.07V57.16C1207.06 49.35 1211.83 2.3 1242.92 6.52C1270.19 10.23 1254.25 50.06 1245.56 54.71L1245.31 70Z" fill="#DD8C5C"/>
<path d="M1230.1 57.32C1227.1 54.97 1224.35 42.32 1224.35 42.32C1224.35 42.32 1226.96 34.86 1225.35 32.88C1224.35 31.72 1222.15 37.13 1222.44 34.1C1222.93 28.97 1223.95 19 1220.98 13.55C1217.91 10.42 1228.57 4.55001 1242.93 6.47001C1247.56 7.10001 1254.02 8.47001 1257.6 15.54C1263.17 26.61 1257.09 51.2 1250.51 56.09C1249.15 57.09 1246.8 59.82 1245.15 60.21C1241.41 61.14 1233.11 59.69 1230.1 57.32Z" fill="#1E1E1E"/>
<path d="M1211.7 68.5C1201.19 61.72 1227.71 42.02 1254.47 46.06C1270.87 48.55 1270.84 62.06 1260.67 68.5H1211.7Z" fill="#1F3C2B"/>
<path d="M1197.74 67.59C1178.59 77.59 1145.05 111.59 1142.94 130.59C1141.29 145.39 1160.18 184.59 1160.18 184.59L1168.99 188.68L1174.99 180.97L1167.53 135.65L1190.24 111.9C1190.24 111.9 1184.79 185.04 1184.23 208.23C1184.23 208.83 1183.84 210.94 1183.3 214.71C1182.69 218.93 1182.72 223.57 1185.55 226.49C1185.55 226.49 1201.5 229.49 1210.56 229.9C1236.09 230.95 1251.7 227.08 1263.85 224C1265.77 223.94 1266.34 220.3 1266.23 218.9C1265.23 206.79 1259.81 166.19 1259.81 166.19L1271.96 114L1296.57 140.72L1272.17 183.56C1273.26 185.2 1279.17 190.03 1279.17 190.03L1288.87 189.72C1288.87 189.72 1323.9 156.03 1318.81 139.87C1306.98 102.36 1278.53 77.06 1267.35 70.63C1252.72 62.22 1211.7 60.28 1197.74 67.59Z" fill="#1F3C2B"/>
<path d="M1174.89 180.79C1174.45 180.92 1169.22 188.38 1168.99 188.7L1175.74 198.5L1184.22 208.86L1185.29 194.65C1185.29 194.65 1194.52 186.41 1193.14 182.91C1191.76 179.41 1183.42 187.63 1183.42 187.63L1178.07 186.22L1174.89 180.79Z" fill="#DD8C5C"/>
<path d="M1223.19 82.71C1218.4 74.23 1211.7 66.54 1203.61 65.42L1204.11 64.42L1209.33 63.61C1217.77 65.14 1226.65 68.46 1234.82 79.2L1223.19 82.71Z" fill="#1E1E1E"/>
<path d="M1185.51 167.68C1182.34 172.12 1182.89 174.93 1184.65 179.06C1184.65 179.06 1190.87 188.78 1195.39 191.92C1199.52 194.8 1207.31 199.98 1216.51 199.98L1217.34 189.54C1209.34 189.79 1201.96 184.54 1198.16 182.06C1193.28 178.85 1185.51 167.68 1185.51 167.68Z" fill="#1E1E1E"/>
<path d="M1261.51 67.92C1263.32 68.65 1265.14 70.26 1268.89 75.61L1278.03 76.85C1272.03 70.26 1268.26 66.85 1264.02 65.79L1261.51 67.92Z" fill="#1E1E1E"/>
<path d="M1295.17 244.12L1286.74 231.22L1290.11 229.31L1298.43 242.21L1295.17 244.12Z" fill="#1E1E1E"/>
<path d="M1266.67 255.23L1261.21 234.36L1257.31 235.83L1262.7 256.83L1266.67 255.23Z" fill="#1E1E1E"/>
<path d="M1281.88 236.33L1256.22 240.65C1243.81 242.46 1217.95 224.2 1217.72 212.96L1216.44 96.8099C1217.11 84.6499 1247.16 76.0699 1277 76.0699C1288.83 77.3899 1298.24 87.3299 1298.43 98.3099L1300.52 215.61C1300.75 225.53 1292.5 234.79 1281.88 236.33Z" fill="#FF2D55"/>
<path d="M1260.88 233.88C1257.95 234.05 1255.71 232.88 1255.8 231.18C1255.89 229.48 1258.29 228.05 1261.23 227.9C1264.17 227.75 1266.32 228.9 1266.23 230.61C1266.14 232.32 1263.79 233.71 1260.88 233.88ZM1261.14 229.44C1259.14 229.55 1257.61 230.39 1257.57 231.08C1257.53 231.77 1258.98 232.45 1260.97 232.34C1262.96 232.23 1264.46 231.34 1264.5 230.7C1264.54 230.06 1263.12 229.34 1261.14 229.44Z" fill="#1E1E1E"/>
<path d="M1258.73 232L1258.21 240.3L1262.79 239.52L1263.21 231.75L1258.73 232Z" fill="#1E1E1E"/>
<path d="M1263.34 229.74L1264.02 218.12L1259.55 218.31L1258.87 229.98L1263.34 229.74Z" fill="#1E1E1E"/>
<path d="M1296.3 121.38C1295.53 121.441 1294.75 121.25 1294.1 120.835C1293.44 120.421 1292.94 119.805 1292.67 119.08C1292.23 117.43 1293.61 115.74 1295.73 115.32C1296.06 115.252 1296.39 115.219 1296.73 115.22C1297.5 115.171 1298.26 115.369 1298.9 115.785C1299.55 116.2 1300.04 116.812 1300.31 117.53C1300.74 119.16 1299.4 120.84 1297.31 121.27C1296.98 121.342 1296.64 121.379 1296.3 121.38ZM1296.81 116.65C1296.57 116.648 1296.33 116.672 1296.1 116.72C1294.8 116.98 1293.9 117.93 1294.1 118.78C1294.3 119.63 1295.63 120.14 1296.92 119.88C1298.21 119.62 1299.1 118.67 1298.92 117.82C1298.74 117.428 1298.43 117.104 1298.05 116.894C1297.68 116.684 1297.24 116.598 1296.81 116.65Z" fill="#1E1E1E"/>
<path d="M1298.06 116.99L1294.02 104.01L1289.82 103.9L1294.46 117.71L1298.06 116.99Z" fill="#1E1E1E"/>
<path d="M1298.54 119L1295.09 119.7L1298.05 134.99L1300.68 134.93L1298.54 119Z" fill="#1E1E1E"/>
<path d="M1226.87 141L1228.58 227C1219.04 226 1211.71 219.41 1211.57 210.53L1210.77 171.53C1210.53 159.63 1216.94 138.62 1216.94 138.62C1219.07 140.67 1221.71 141.81 1226.87 141Z" fill="#FF2D55"/>
<path d="M1226.2 176.58L1227.14 223.53C1227.1 223.981 1226.96 224.418 1226.72 224.807C1226.49 225.195 1226.17 225.526 1225.79 225.775C1225.41 226.023 1224.98 226.182 1224.53 226.24C1224.08 226.298 1223.63 226.254 1223.2 226.11C1219.84 225.043 1216.9 222.953 1214.8 220.134C1212.69 217.316 1211.51 213.908 1211.44 210.39L1210.71 174.84C1214.7 177.53 1219.86 177.81 1226.2 176.58Z" fill="#1E1E1E"/>
<path d="M1254.86 138.32C1240.09 145.71 1241.23 176.2 1243.46 190.96C1247.81 219.7 1260.34 224.34 1296.49 219.7C1313.03 217.58 1316.95 198.32 1316.04 181.83C1315.23 166.93 1314.78 142.33 1303.23 136.78C1292.76 131.73 1286.44 124.28 1277.99 115.62C1270.86 125.35 1266.6 132.44 1254.86 138.32Z" fill="#FF2D55"/>
<path d="M1234.9 130.06C1234.41 128.29 1236.09 126.28 1238.67 125.57C1239.07 125.463 1239.49 125.389 1239.91 125.35C1242.07 125.16 1243.91 126.05 1244.29 127.53C1244.79 129.32 1243.06 131.35 1240.46 132.04C1240.05 132.149 1239.64 132.219 1239.22 132.25C1237.08 132.42 1235.3 131.52 1234.9 130.06ZM1239.09 127.06C1237.51 127.49 1236.39 128.64 1236.64 129.56C1236.86 130.3 1237.89 130.74 1239.17 130.64C1239.46 130.611 1239.75 130.557 1240.04 130.48C1241.63 130.06 1242.76 128.91 1242.5 127.98C1242.3 127.24 1241.25 126.8 1239.96 126.91C1239.66 126.94 1239.37 127.001 1239.09 127.09V127.06Z" fill="#1E1E1E"/>
<path d="M1241.49 127.17L1236.87 113.26L1231.89 113.8L1237.09 128.37L1241.49 127.17Z" fill="#1E1E1E"/>
<path d="M1242.04 129.38L1237.79 130.5L1241.03 147.27L1244.3 147.08L1242.04 129.38Z" fill="#1E1E1E"/>
<path d="M1295.75 215.23C1346.42 206.57 1303.94 144.79 1303.23 145.14C1298.09 147.73 1278.57 152 1274.46 151.74C1273.57 151.69 1232.65 225.55 1295.75 215.23Z" fill="#FF2D55"/>
<path d="M1278.91 151.4C1261.83 153.95 1246.54 154.06 1242.01 151.34L1241.87 150.46C1246.16 153.04 1262.18 153.12 1278.79 150.66C1292.72 148.59 1304.54 145.21 1309.01 142.13L1309.3 142.77C1304.75 145.92 1292.95 149.3 1278.91 151.4Z" fill="#1E1E1E"/>
<path d="M1293.43 200.57C1302.63 199.309 1311.68 197.139 1320.44 194.09C1320.38 194.44 1320.35 194.78 1320.31 195.09C1313.77 197.48 1304.2 199.71 1293.59 201.26C1279.58 203.26 1267.1 203.52 1261.57 201.87L1261.39 201.08C1266.8 202.72 1279.48 202.62 1293.43 200.57Z" fill="#1E1E1E"/>
<path d="M1300.26 180C1302.26 195.94 1301.97 209.85 1299.26 214.16L1298.42 214.37C1300.96 210.28 1301.42 195.67 1299.51 180.15C1297.8 166.63 1294.06 153.58 1290.97 148.95L1291.81 148.83C1294.99 153.49 1298.55 166.34 1300.26 180Z" fill="#1E1E1E"/>
<path d="M1275.87 111.4C1273.47 111.63 1271.46 110.73 1271.22 109.29C1270.98 107.85 1272.63 106.61 1275.04 106.39C1277.45 106.17 1279.39 107.09 1279.62 108.51C1279.85 109.93 1278.25 111.17 1275.87 111.4ZM1275.28 107.88C1273.74 108.02 1272.81 108.73 1272.88 109.14C1272.95 109.55 1274.08 110.06 1275.62 109.91C1277.16 109.76 1278.08 109.06 1278.01 108.66C1277.94 108.26 1276.82 107.74 1275.28 107.88Z" fill="#1E1E1E"/>
<path d="M1276.46 114.92C1274.06 115.16 1272.06 114.27 1271.82 112.83C1271.58 111.39 1273.22 110.14 1275.62 109.91C1278.02 109.68 1279.97 110.59 1280.2 112C1280.43 113.41 1278.84 114.67 1276.46 114.92ZM1275.87 111.4C1274.33 111.55 1273.4 112.26 1273.47 112.67C1273.54 113.08 1274.67 113.59 1276.21 113.43C1277.75 113.27 1278.66 112.57 1278.59 112.16C1278.52 111.75 1277.41 111.25 1275.87 111.4Z" fill="#1E1E1E"/>
<path d="M1277.67 108.38L1276.71 102.6L1272.15 102.98L1273.12 108.8L1277.67 108.38Z" fill="#1E1E1E"/>
<path d="M1273.82 113.04L1275.17 121.13L1279.71 120.62L1278.37 112.59L1273.82 113.04Z" fill="#1E1E1E"/>
<path d="M1255.51 75.17C1223.77 76.07 1212.99 80.6 1216.3 100.29L1231.1 115.62C1256.37 104.86 1274.13 100.05 1298.49 106.76C1297.13 83.94 1298.46 73.94 1255.51 75.17Z" fill="#1E1E1E"/>
<path d="M1255.14 72.93C1223.37 72.88 1213.93 78.16 1215.9 97.93L1231.1 113.52C1256.39 102.85 1274.13 97.59 1298.49 104.39C1298.44 79.21 1289.47 73 1255.14 72.93Z" fill="#FF2D55"/>
<path d="M1225.47 88.63C1233.86 85.63 1251.99 83.55 1264.94 82.92C1280.19 82.18 1287.23 83.27 1296.56 89.06L1296.95 90.24C1295.95 90.45 1288.41 82.24 1265.07 83.66C1249.41 84.6 1233.16 86.99 1225.83 89.46C1225.71 89.18 1225.6 88.9 1225.47 88.63Z" fill="#1E1E1E"/>
<path d="M1230.59 113.81C1229.4 93.21 1222.78 81.36 1219.46 81.02L1219.87 80.41C1224.24 80.86 1229.87 92.63 1231.66 113.94L1230.59 113.81Z" fill="#1E1E1E"/>
<path d="M1232.79 87H1231.87C1231.21 81.38 1232.15 76.76 1234.4 74.67C1235.15 74.2751 1235.95 73.992 1236.77 73.83C1234.71 75.43 1231.71 78.19 1232.79 87Z" fill="#1E1E1E"/>
<path d="M1276.74 93.72C1276.8 94.1882 1276.77 94.6652 1276.63 95.1186C1276.5 95.5721 1276.27 95.9916 1275.96 96.3488C1275.65 96.706 1275.27 96.9927 1274.84 97.1896C1274.41 97.3864 1273.94 97.4888 1273.47 97.49C1272.45 97.581 1271.43 97.301 1270.61 96.7016C1269.78 96.1023 1269.2 95.2243 1268.97 94.23C1268.91 93.7573 1268.95 93.2763 1269.08 92.8195C1269.22 92.3627 1269.46 91.9408 1269.77 91.5824C1270.09 91.224 1270.47 90.9374 1270.91 90.742C1271.35 90.5466 1271.82 90.447 1272.3 90.45C1273.31 90.3719 1274.31 90.6592 1275.12 91.2595C1275.94 91.8598 1276.51 92.733 1276.74 93.72Z" fill="#1E1E1E"/>
<path d="M159.582 535.16C196.243 534.71 272.187 542.28 295.751 534.71C319.315 527.14 418.822 462.78 452.842 464.71C486.861 466.64 615.206 479.85 625.682 477.96C636.158 476.07 818.903 427.59 818.903 427.59L885.822 423.38L998.727 385.1C998.727 385.1 1084.16 359.87 1088 359.65C1091.84 359.43 1182.62 351.97 1182.62 351.97L1283.88 359.65L1455.56 351.44C1455.56 351.44 1493 343.44 1505.59 344.71C1516.04 345.71 1543.42 358.17 1543.42 358.17L1600.45 344.71H1641.19L1682.5 330.83H1728.6V618H0V544.5C60.6551 540.41 138.14 535.43 159.582 535.16Z" fill="#013670"/>
</g>
<defs>
<clipPath id="clip0_234_2742">
<rect width="1730" height="618" fill="white"/>
</clipPath>
</defs>
</svg>
