<svg width="1728" height="618" viewBox="0 0 1728 618" fill="none" xmlns="http://www.w3.org/2000/svg">
<path d="M575.64 485.29C570.19 486.14 517.37 486.29 448.12 486.12H447.92C428.51 486.06 407.8 485.99 386.49 485.89H380.49H379.2C362 485.82 344.46 485.72 326.93 485.62L308.79 485.52L252.41 485.16H250.65H245.45L184.34 484.72H183.89C123.5 484.27 80.7502 483.91 80.7502 483.91C35.8802 456.33 33.6201 373.79 59.3101 335.74C108.4 263.02 42.5201 211.23 69.7601 158.4C106.2 87.74 158.19 161.26 239.15 87.89C306.68 26.7 361.21 21.36 392.57 44.7C393.49 45.39 394.41 46.09 395.32 46.8C414.32 61.53 431.87 81.19 454.79 94.18C455.71 94.7 456.64 95.21 457.58 95.71C473.13 103.98 491.16 106.2 513.69 107.6C683.56 118.17 575.05 264.08 609.53 324.2C647.63 390.56 624.77 477.64 575.64 485.29Z" fill="#E3F0FF"/>
<path d="M314.67 254.54C314.67 254.54 379 298.06 422 291.68C448.85 287.68 423.18 174.1 423.18 174.1L404.49 174.37C404.49 174.37 408.36 254.59 401.91 253.42C397.85 252.68 348.22 222.28 348.22 222.28L314.67 254.54Z" fill="#FFB4C7"/>
<path d="M291.22 106.73C290.042 107.734 288.921 108.803 287.86 109.93C279.16 119.19 279.72 135.29 267.66 141.54C259.03 146.01 248.66 142.25 238.98 141.54C231.83 141.02 224.4 142.33 218.38 146.22C212.36 150.11 207.94 156.78 207.73 163.94C207.52 171.1 211.18 177.58 211.73 184.59C211.984 187.796 211.598 191.02 210.596 194.076C209.593 197.132 207.994 199.958 205.89 202.39C201.38 207.56 194.89 210.53 189.58 214.84C184.27 219.15 179.82 226.06 181.9 232.59C184.12 239.59 192.65 242.81 195.67 249.51C198.93 256.71 194.81 264.86 191.84 272.19C188.87 279.52 187.84 289.63 194.6 293.75C197.6 295.58 201.33 295.59 204.83 295.27C207.13 295.05 209.59 294.73 211.66 295.76C212.885 296.442 213.949 297.38 214.78 298.51C220.04 304.98 223.48 313.9 231.34 316.7C235.4 318.15 239.86 317.59 244.13 316.99C253.05 315.72 262.43 314.12 269.35 308.35C281.35 298.35 281.81 279.58 292.21 267.92C300.49 258.63 313.62 255.46 326.01 254.25C338.4 253.04 397.45 262.17 392.32 223.17C390.94 212.68 377.32 204.77 375.23 194.4C373.51 186.01 376.68 177.87 376.8 169.51C376.91 161.32 373.12 153.27 369.88 145.88C363.32 130.94 352.71 109.05 337.98 100.81C323.25 92.57 303.67 96.13 291.22 106.73Z" fill="#FF2D55"/>
<path d="M386.49 485.89C366.97 485.8 346.94 485.7 326.93 485.58C326.85 480.26 326.22 438.01 324.07 437.47C321.92 436.93 310.35 479.67 308.79 485.47L245.45 485.07C243.78 475.61 232.93 404.6 274.45 362.18L316.1 364.76L357.88 362.18C357.88 362.18 375.65 383.7 383.67 408.89C391.32 433.09 386.86 482.05 386.49 485.89Z" fill="#013670"/>
<path d="M357.85 351V362.16C357.85 362.16 336.66 382.77 274.41 362.16L274.27 351L328.94 347.56L357.85 351Z" fill="#1E1E1E"/>
<path d="M336.68 216.39C336.68 216.39 357.68 221.11 368.84 228.84C376.84 234.37 394.27 247.28 394.27 247.28L375.33 277.28C375.33 277.28 380.17 296.09 361.27 305.54L357.85 351C357.85 351 322.35 371.61 274.27 351C274.27 351 268.63 328.74 262.27 302.06C257.13 280.53 249.74 256.34 258.18 236.93C269.09 211.83 306.33 214.41 306.33 214.41L336.68 216.39Z" fill="#3696FF"/>
<path d="M355.59 152.67C355.59 152.67 358.59 148.23 360.89 150.06C366.81 154.72 360.33 160.82 356.36 162.11L355.59 152.67Z" fill="#FFB4C7"/>
<path d="M318.5 98.34C312.66 98.6948 306.992 100.455 301.978 103.471C296.964 106.486 292.753 110.668 289.702 115.661C286.651 120.654 284.852 126.31 284.456 132.147C284.061 137.985 285.081 143.831 287.43 149.19C292.35 161.87 296.43 172.09 301.53 179.54C306.759 187.039 308.956 196.238 307.68 205.29L306.31 214.44C327.38 225.14 336.68 216.39 336.68 216.39L336.83 193.5C359.71 190.92 356.94 148.71 357.02 136.24C357.02 135.77 357.02 135.3 357.02 134.83C357.05 129.856 356.058 124.929 354.106 120.354C352.154 115.779 349.283 111.653 345.672 108.233C342.061 104.812 337.787 102.169 333.113 100.467C328.439 98.7655 323.465 98.0415 318.5 98.34Z" fill="#FFB4C7"/>
<path d="M315.4 135.07C308.96 142.57 302.12 149.93 297.29 158.54C296.76 159.48 292.97 166.6 294.05 167.42C288.18 162.91 284.45 156.2 281.32 149.49C275.88 137.87 277.58 123.96 284.39 113.28C291.2 102.6 302.34 97.28 314.66 96.36C327.86 95.36 342.23 99.9 350.23 110.97C357.74 121.35 358 134.43 358.78 146.7C357.9 132.93 339.45 122.54 328.39 117.61C328.72 117.75 320.07 129.45 319.61 130.02C318.24 131.72 316.83 133.4 315.4 135.07Z" fill="#FF2D55"/>
<path d="M298.44 159.44C297.851 158.265 296.851 157.347 295.63 156.86C293.13 155.86 288.71 154.7 285.63 157.72C281.14 162.15 290.04 174.04 298.95 168.22C299 168.22 301.52 165.7 298.44 159.44Z" fill="#FFB4C7"/>
<path d="M349.58 153C349.644 152.376 349.521 151.748 349.228 151.194C348.935 150.64 348.484 150.185 347.932 149.887C347.381 149.59 346.753 149.462 346.129 149.521C345.505 149.58 344.913 149.822 344.426 150.217C343.94 150.613 343.582 151.144 343.397 151.743C343.212 152.342 343.209 152.982 343.389 153.583C343.568 154.183 343.921 154.717 344.403 155.117C344.886 155.517 345.476 155.765 346.1 155.83C346.514 155.873 346.933 155.834 347.332 155.715C347.731 155.596 348.103 155.399 348.426 155.136C348.75 154.873 349.018 154.549 349.216 154.183C349.414 153.816 349.537 153.414 349.58 153Z" fill="#1E1E1E"/>
<path d="M319.63 156.13C319.694 155.506 319.572 154.878 319.278 154.324C318.985 153.77 318.534 153.315 317.983 153.017C317.431 152.72 316.804 152.592 316.18 152.651C315.556 152.71 314.963 152.952 314.477 153.347C313.99 153.743 313.632 154.274 313.447 154.873C313.263 155.472 313.26 156.112 313.439 156.713C313.618 157.313 313.971 157.847 314.454 158.247C314.936 158.647 315.527 158.895 316.15 158.96C316.564 159.003 316.983 158.964 317.382 158.845C317.782 158.726 318.153 158.529 318.477 158.266C318.8 158.003 319.068 157.679 319.266 157.313C319.464 156.946 319.588 156.544 319.63 156.13Z" fill="#1E1E1E"/>
<path d="M341.53 142.61C341.293 142.481 341.102 142.282 340.981 142.04C340.861 141.799 340.818 141.527 340.857 141.26C340.896 140.993 341.016 140.744 341.201 140.548C341.386 140.351 341.626 140.216 341.89 140.16C345.477 139.603 349.147 140.31 352.27 142.16C352.419 142.249 352.549 142.366 352.653 142.505C352.757 142.644 352.832 142.802 352.875 142.97C352.918 143.138 352.927 143.313 352.902 143.484C352.877 143.656 352.819 143.821 352.73 143.97C352.548 144.267 352.256 144.481 351.918 144.567C351.58 144.653 351.222 144.604 350.92 144.43C348.365 142.908 345.364 142.308 342.42 142.73C342.119 142.798 341.803 142.755 341.53 142.61Z" fill="#0E2742"/>
<path d="M333.82 168.31C335.122 168.198 336.346 167.639 337.283 166.728C338.22 165.816 338.812 164.609 338.96 163.31C338.978 163.025 338.889 162.743 338.71 162.52C335.38 158.4 335.76 152.4 335.77 152.34C335.793 152.046 335.697 151.754 335.505 151.53C335.313 151.306 335.04 151.168 334.745 151.145C334.599 151.134 334.453 151.151 334.314 151.197C334.175 151.242 334.046 151.315 333.935 151.41C333.711 151.602 333.573 151.876 333.55 152.17C333.55 152.45 333.11 158.74 336.67 163.52C336.45 164.39 335.54 166.34 331.98 166.14C331.686 166.123 331.397 166.223 331.176 166.419C330.956 166.615 330.822 166.891 330.805 167.185C330.788 167.479 330.888 167.769 331.084 167.989C331.28 168.209 331.556 168.343 331.85 168.36C332.507 168.406 333.167 168.389 333.82 168.31Z" fill="#FFB4C7"/>
<path d="M344.75 176.12C344.75 176.12 340.4 173.65 338.8 174.12C337.714 174.629 336.861 175.529 336.41 176.64C336.104 176.107 335.669 175.66 335.145 175.34C334.62 175.02 334.023 174.838 333.41 174.81C331.41 174.87 325.05 178.9 325.05 178.9C325.05 178.9 331.64 186.98 337.55 185.61C343.46 184.24 344.78 176.07 344.78 176.07L344.75 176.12Z" fill="#FF2D55"/>
<path d="M325 179C331.622 178.406 338.208 177.461 344.73 176.17C344.73 176.17 341.46 182.47 336.84 182.72C332.22 182.97 325 179 325 179Z" fill="white"/>
<path d="M375.33 277.86C375.183 277.861 375.042 277.807 374.933 277.709C374.824 277.611 374.755 277.476 374.74 277.33C374.74 277.23 373.34 266.47 365.02 258.64C364.906 258.531 364.84 258.382 364.836 258.224C364.832 258.067 364.891 257.914 365 257.8C365.109 257.686 365.258 257.62 365.416 257.616C365.573 257.612 365.726 257.671 365.84 257.78C371.205 262.994 374.741 269.802 375.92 277.19C375.93 277.268 375.924 277.346 375.903 277.422C375.882 277.497 375.847 277.567 375.798 277.629C375.75 277.69 375.69 277.741 375.621 277.779C375.553 277.817 375.478 277.841 375.4 277.85L375.33 277.86Z" fill="#0E2742"/>
<path d="M447.22 131.43L416.69 135.9V168.69L447.22 172.41V131.43Z" fill="#0E2742"/>
<path d="M418.22 168.83C425.808 168.83 431.96 161.434 431.96 152.31C431.96 143.186 425.808 135.79 418.22 135.79C410.632 135.79 404.48 143.186 404.48 152.31C404.48 161.434 410.632 168.83 418.22 168.83Z" fill="#0E2742"/>
<path d="M453.06 129.2L425.06 134.16V170.52L453.06 174.65V129.2Z" fill="#246BB9"/>
<path d="M426.46 170.67C433.419 170.67 439.06 162.472 439.06 152.36C439.06 142.248 433.419 134.05 426.46 134.05C419.501 134.05 413.86 142.248 413.86 152.36C413.86 162.472 419.501 170.67 426.46 170.67Z" fill="#246BB9"/>
<path d="M508.73 113.37L461.23 121.79V183.46L508.73 190.47V113.37Z" fill="#3696FF"/>
<path d="M463.61 183.72C475.413 183.72 484.98 169.814 484.98 152.66C484.98 135.506 475.413 121.6 463.61 121.6C451.808 121.6 442.24 135.506 442.24 152.66C442.24 169.814 451.808 183.72 463.61 183.72Z" fill="#3696FF"/>
<path d="M517.85 194.98C534.214 194.98 547.48 175.701 547.48 151.92C547.48 128.139 534.214 108.86 517.85 108.86C501.486 108.86 488.22 128.139 488.22 151.92C488.22 175.701 501.486 194.98 517.85 194.98Z" fill="#0154AE"/>
<path d="M351.36 131.43L320.83 135.9V168.69L351.36 172.41V131.43Z" fill="#0E2742"/>
<path d="M322.36 168.83C329.948 168.83 336.1 161.434 336.1 152.31C336.1 143.186 329.948 135.79 322.36 135.79C314.772 135.79 308.62 143.186 308.62 152.31C308.62 161.434 314.772 168.83 322.36 168.83Z" fill="#0E2742"/>
<path d="M357.2 129.2L329.19 134.16V170.52L357.2 174.65V129.2Z" fill="#246BB9"/>
<path d="M330.59 170.67C337.549 170.67 343.19 162.472 343.19 152.36C343.19 142.248 337.549 134.05 330.59 134.05C323.631 134.05 317.99 142.248 317.99 152.36C317.99 162.472 323.631 170.67 330.59 170.67Z" fill="#246BB9"/>
<path d="M412.87 113.37L365.36 121.79V183.46L412.87 190.47V113.37Z" fill="#3696FF"/>
<path d="M367.74 183.72C379.542 183.72 389.11 169.814 389.11 152.66C389.11 135.506 379.542 121.6 367.74 121.6C355.938 121.6 346.37 135.506 346.37 152.66C346.37 169.814 355.938 183.72 367.74 183.72Z" fill="#3696FF"/>
<path d="M484.54 97.46L418.69 109.13V194.62L484.54 204.33V97.46Z" fill="#0154AE"/>
<path d="M421.99 194.98C438.354 194.98 451.62 175.701 451.62 151.92C451.62 128.139 438.354 108.86 421.99 108.86C405.626 108.86 392.36 128.139 392.36 151.92C392.36 175.701 405.626 194.98 421.99 194.98Z" fill="#0154AE"/>
<path d="M494.09 209.31C516.684 209.31 535 183.445 535 151.54C535 119.635 516.684 93.77 494.09 93.77C471.496 93.77 453.18 119.635 453.18 151.54C453.18 183.445 471.496 209.31 494.09 209.31Z" fill="#3696FF"/>
<path d="M513.05 93.77L492.52 93.81L491.37 209.32H513.05V93.77Z" fill="#3696FF"/>
<path d="M513.05 209.31C535.644 209.31 553.96 183.445 553.96 151.54C553.96 119.635 535.644 93.77 513.05 93.77C490.456 93.77 472.14 119.635 472.14 151.54C472.14 183.445 490.456 209.31 513.05 209.31Z" fill="#0E2742"/>
<path d="M543.94 151.55C544.026 160.709 542.112 169.777 538.33 178.12C532.75 190.01 523.51 197.79 513.06 197.79C496.06 197.79 482.18 177.08 482.18 151.55C482.18 132.55 489.79 116.3 500.69 109.16C504.34 106.684 508.64 105.341 513.05 105.3C530.11 105.3 543.94 126 543.94 151.55Z" fill="#246BB9"/>
<path d="M543.94 151.55C544.026 160.709 542.112 169.777 538.33 178.12C534.691 180.598 530.402 181.948 526 182C508.94 182 495.11 161.3 495.11 135.76C495.025 126.597 496.939 117.527 500.72 109.18C504.37 106.704 508.67 105.361 513.08 105.32C530.11 105.3 543.94 126 543.94 151.55Z" fill="#76B7FF"/>
<path d="M538.64 163.41C538.487 163.425 538.333 163.425 538.18 163.41C537.544 163.286 536.983 162.916 536.62 162.38C536.256 161.844 536.12 161.186 536.24 160.55C536.58 158.79 536.79 148.06 533.67 137.13C532.234 131.646 529.744 126.493 526.34 121.96C522.898 117.454 518.006 114.275 512.49 112.96C512.178 112.886 511.884 112.751 511.624 112.563C511.364 112.375 511.144 112.138 510.976 111.865C510.808 111.592 510.695 111.288 510.645 110.972C510.594 110.655 510.606 110.332 510.68 110.02C510.754 109.708 510.889 109.414 511.077 109.154C511.265 108.894 511.502 108.674 511.775 108.506C512.048 108.338 512.352 108.225 512.668 108.175C512.985 108.124 513.308 108.136 513.62 108.21C525.45 111 534 120.5 538.36 135.75C541.59 147.07 541.58 158.55 541.03 161.43C540.925 161.987 540.629 162.49 540.192 162.851C539.756 163.213 539.207 163.41 538.64 163.41Z" fill="white"/>
<path d="M375.29 201.57C375.29 201.57 386.06 180.57 385.71 175.57C385.36 170.57 382.37 156.2 382.44 153.81C382.51 151.42 385.7 139.18 384.9 136.98C384.1 134.78 377.52 149.16 377.52 149.16C377.52 149.16 381.41 136.1 379.3 134.73C377.19 133.36 371.8 147 371.8 147C371.8 147 376.16 133.9 373.92 133.29C371.68 132.68 367.27 145.35 367.27 145.35C367.27 145.35 370.52 135.12 368.73 134.68C366.94 134.24 358.93 150.32 361.03 157.14C365.97 173.24 362.82 192.76 362.82 192.76L375.29 201.57Z" fill="#FFB4C7"/>
<path d="M262.25 267.74C262.25 267.74 317.73 315.74 360.9 310.42C389.98 306.85 383.49 183.73 383.49 183.73L363.55 185.82C363.55 185.82 351.62 271 343.19 271C339.07 271 292.19 235.38 292.19 235.38L262.25 267.74Z" fill="#FFB4C7"/>
<path d="M296.09 228.45L321.21 250.13L283.65 295.9L259.12 270.99L266.16 249.57L296.09 228.45Z" fill="#3696FF"/>
<path d="M287.52 291.65L271.13 281.52L271.44 281.02L287.4 290.88L319.46 251.8L299.8 233.43L300.2 233L320.26 251.75L287.52 291.65Z" fill="#013670"/>
</svg>
